<?xml version="1.0" encoding="utf-8"?>
<!-- Generator: Adobe Illustrator 16.0.0, SVG Export Plug-In . SVG Version: 6.00 Build 0)  -->
<!DOCTYPE svg PUBLIC "-//W3C//DTD SVG 1.1//EN" "http://www.w3.org/Graphics/SVG/1.1/DTD/svg11.dtd">
<svg version="1.1" id="图层_1" xmlns="http://www.w3.org/2000/svg" xmlns:xlink="http://www.w3.org/1999/xlink" x="0px" y="0px"
	 width="60px" height="60px" viewBox="0 0 60 60" enable-background="new 0 0 60 60" xml:space="preserve">
<path fill="#00A349" stroke="#FFFFFF" stroke-miterlimit="10" d="M29.999,0.801c16.06,0,29.078,13.075,29.078,29.203
	c0,16.129-13.021,29.206-29.078,29.206c-16.057,0-29.074-13.077-29.074-29.206C0.924,13.875,13.942,0.801,29.999,0.801z"/>
<g>
	<g>
		<path fill="#FFFFFF" d="M50.07,18.803H10.525c-1.316,0-2.382,1.444-2.382,3.224l-0.595,9.13l0.595,4.251
			c0,1.783,1.066,3.227,2.382,3.227h7.508c-0.002-0.055-0.002-0.114-0.003-0.174c0-2.383,1.921-4.317,4.289-4.317
			c2.367,0,4.287,1.935,4.287,4.317c0,0.06-0.002,0.119-0.005,0.174h11.443c-0.002-0.055-0.002-0.114-0.002-0.174
			c0-2.383,1.917-4.317,4.287-4.317c2.366,0,4.286,1.935,4.286,4.317c0,0.06-0.002,0.119-0.004,0.174h3.459
			c1.313,0,2.381-1.443,2.381-3.227V22.029C52.454,20.247,51.383,18.803,50.07,18.803z M17.797,30.99l-1.136,0.684l-5.717,3.792
			V23.589c0-0.131,0.107-0.239,0.239-0.239h6.431c0.132,0,0.238,0.106,0.238,0.239L17.797,30.99z M28.95,27.028
			c0,0.13-0.107,0.24-0.24,0.24h-5.555c-0.132,0-0.239-0.108-0.239-0.24v-3.439c0-0.131,0.106-0.239,0.239-0.239h5.555
			c0.133,0,0.24,0.106,0.24,0.239V27.028z M38.042,27.028c0,0.13-0.107,0.24-0.237,0.24h-5.56c-0.13,0-0.238-0.108-0.238-0.24
			v-3.439c0-0.131,0.108-0.239,0.238-0.239h5.56c0.13,0,0.237,0.106,0.237,0.239V27.028z M47.134,27.028
			c0,0.13-0.107,0.24-0.238,0.24h-5.558c-0.131,0-0.239-0.108-0.239-0.24v-3.439c0-0.131,0.108-0.239,0.239-0.239h5.558
			c0.131,0,0.238,0.106,0.238,0.239V27.028z M42.329,35.725c-1.505,0-2.72,1.227-2.72,2.741c0,1.51,1.215,2.736,2.72,2.736
			c1.503,0,2.719-1.225,2.719-2.736C45.048,36.951,43.832,35.725,42.329,35.725z M22.319,35.725c-1.502,0-2.721,1.227-2.721,2.741
			c0,1.51,1.218,2.736,2.721,2.736c1.502,0,2.719-1.225,2.719-2.736C25.038,36.951,23.82,35.725,22.319,35.725z"/>
	</g>
</g>
</svg>
