<svg 
 xmlns="http://www.w3.org/2000/svg"
 xmlns:xlink="http://www.w3.org/1999/xlink"
 width="419.5px" height="352.5px">
<path fill-rule="evenodd"  fill="rgb(4, 89, 154)"
 d="M0.056,90.982 L61.583,90.982 L61.583,270.414 L0.056,270.414 L0.056,90.982 Z"/>
<path fill-rule="evenodd"  fill="rgb(255, 255, 255)"
 d="M29.499,257.475 L25.055,261.402 L20.610,257.475 L23.901,257.475 L19.238,249.990 L2.844,249.990 L2.844,248.217 L18.133,248.217 L18.123,248.201 L19.901,248.201 L25.679,257.475 L29.499,257.475 Z"/>
<path fill-rule="evenodd"  fill="rgb(255, 255, 255)"
 d="M25.679,201.816 L19.901,211.091 L19.514,211.091 L19.514,211.110 L2.844,211.110 L2.844,209.281 L19.251,209.281 L23.901,201.816 L20.610,201.816 L25.055,197.890 L29.499,201.816 L25.679,201.816 Z"/>
<path fill-rule="evenodd"  fill="rgb(255, 255, 255)"
 d="M19.543,233.776 L19.543,225.571 L28.790,229.674 L19.543,233.776 ZM2.844,228.777 L19.514,228.777 L19.514,230.522 L2.844,230.522 L2.844,228.777 Z"/>
<path fill-rule="evenodd"  fill="rgb(255, 255, 255)"
 d="M28.750,106.314 L12.079,106.314 L12.079,109.511 L2.832,105.409 L12.079,101.306 L12.079,104.486 L28.750,104.486 L28.750,106.314 Z"/>
<path fill-rule="evenodd"  fill="rgb(255, 255, 255)"
 d="M28.750,129.552 L12.079,129.552 L12.079,132.701 L2.832,128.599 L12.079,124.497 L12.079,127.667 L28.750,127.667 L28.750,129.552 Z"/>
<path fill-rule="evenodd"  fill="rgb(255, 255, 255)"
 d="M28.750,152.678 L12.079,152.678 L12.079,155.891 L2.832,151.789 L12.079,147.687 L12.079,150.905 L28.750,150.905 L28.750,152.678 Z"/>
<path fill-rule="evenodd"  fill="rgb(255, 255, 255)"
 d="M33.002,259.414 L33.002,255.841 L62.033,255.841 L62.033,259.414 L33.002,259.414 ZM33.002,241.747 L62.033,241.747 L62.033,245.348 L33.002,245.348 L33.002,241.747 ZM33.002,227.652 L62.033,227.652 L62.033,231.225 L33.002,231.225 L33.002,227.652 ZM33.002,213.529 L62.033,213.529 L62.033,217.046 L33.002,217.046 L33.002,213.529 ZM33.002,198.506 L62.033,198.506 L62.033,202.051 L33.002,202.051 L33.002,198.506 ZM33.002,184.384 L62.033,184.384 L62.033,187.900 L33.002,187.900 L33.002,184.384 ZM33.002,170.261 L62.033,170.261 L62.033,173.777 L33.002,173.777 L33.002,170.261 ZM33.002,157.010 L62.033,157.010 L62.033,160.527 L33.002,160.527 L33.002,157.010 ZM33.002,142.887 L62.033,142.887 L62.033,146.404 L33.002,146.404 L33.002,142.887 ZM33.002,128.793 L62.033,128.793 L62.033,132.281 L33.002,132.281 L33.002,128.793 ZM33.002,114.642 L62.033,114.642 L62.033,118.187 L33.002,118.187 L33.002,114.642 ZM33.002,100.519 L62.033,100.519 L62.033,104.036 L33.002,104.036 L33.002,100.519 Z"/>
<path fill-rule="evenodd"  opacity="0.4" fill="rgb(255, 255, 255)"
 d="M-0.000,170.655 L32.579,170.655 L32.579,188.322 L-0.000,188.322 L-0.000,170.655 Z"/>
<path fill-rule="evenodd"  stroke="rgb(255, 255, 255)" stroke-width="1px" stroke-linecap="butt" stroke-linejoin="miter" fill="rgb(2, 15, 75)"
 d="M36.296,57.982 L37.254,57.982 C38.653,57.982 39.788,59.117 39.788,60.516 L39.788,87.015 L33.762,87.015 L33.762,60.516 C33.762,59.117 34.897,57.982 36.296,57.982 Z"/>
<path fill-rule="evenodd"  fill="rgb(84, 202, 1)"
 d="M35.789,61.217 L37.761,61.217 L37.761,85.918 L35.789,85.918 L35.789,61.217 Z"/>
<path fill-rule="evenodd"  stroke="rgb(255, 255, 255)" stroke-width="1px" stroke-linecap="butt" stroke-linejoin="miter" fill="rgb(2, 15, 75)"
 d="M34.635,274.156 L40.661,274.156 L40.661,300.683 C40.661,302.083 39.526,303.217 38.127,303.217 L37.169,303.217 C35.770,303.217 34.635,302.083 34.635,300.683 L34.635,274.156 Z"/>
<path fill-rule="evenodd"  fill="rgb(224, 16, 32)"
 d="M36.691,275.309 L38.662,275.309 L38.662,300.038 L36.691,300.038 L36.691,275.309 Z"/>
<path fill-rule="evenodd"  stroke="rgb(255, 255, 255)" stroke-width="1px" stroke-linecap="butt" stroke-linejoin="miter" fill="rgb(2, 15, 75)"
 d="M35.114,174.228 L61.639,174.228 L61.639,180.361 L35.114,180.361 C33.714,180.361 32.579,179.226 32.579,177.826 L32.579,176.762 C32.579,175.362 33.714,174.228 35.114,174.228 Z"/>
<path fill-rule="evenodd"  fill="rgb(84, 202, 1)"
 d="M35.789,176.281 L60.513,176.281 L60.513,178.335 L35.789,178.335 L35.789,176.281 Z"/>
<path fill-rule="evenodd"  stroke="rgb(255, 255, 255)" stroke-width="1px" stroke-linecap="butt" stroke-linejoin="miter" fill="rgb(2, 15, 75)"
 d="M35.114,179.488 L61.639,179.488 L61.639,185.678 L35.114,185.678 C33.714,185.678 32.579,184.543 32.579,183.143 L32.579,182.023 C32.579,180.623 33.714,179.488 35.114,179.488 Z"/>
<path fill-rule="evenodd"  fill="rgb(224, 16, 32)"
 d="M35.789,181.570 L60.513,181.570 L60.513,183.652 L35.789,183.652 L35.789,181.570 Z"/>
<path fill-rule="evenodd"  fill="rgb(1, 54, 109)"
 d="M114.127,0.028 L293.018,0.028 L293.018,61.752 L114.127,61.752 L114.127,0.028 Z"/>
<path fill-rule="evenodd"  opacity="0.4" fill="rgb(255, 255, 255)"
 d="M193.675,-0.000 L211.274,-0.000 L211.274,31.790 L193.675,31.790 L193.675,-0.000 Z"/>
<path fill-rule="evenodd"  fill="rgb(255, 255, 255)"
 d="M124.514,24.853 L124.514,28.685 L120.600,24.226 L124.514,19.767 L124.514,23.069 L132.036,18.352 L132.036,1.941 L133.753,1.941 L133.753,17.275 L133.759,17.272 L133.759,19.056 L124.514,24.853 Z"/>
<path fill-rule="evenodd"  fill="rgb(255, 255, 255)"
 d="M187.417,24.226 L183.504,28.685 L183.504,24.853 L174.258,19.056 L174.258,18.652 L174.245,18.652 L174.245,1.941 L176.076,1.941 L176.076,18.411 L183.504,23.069 L183.504,19.767 L187.417,24.226 Z"/>
<path fill-rule="evenodd"  fill="rgb(255, 255, 255)"
 d="M153.070,1.941 L154.872,1.941 L154.872,18.652 L153.070,18.652 L153.070,1.941 ZM153.988,27.974 L149.898,18.697 L158.077,18.697 L153.988,27.974 Z"/>
<path fill-rule="evenodd"  fill="rgb(255, 255, 255)"
 d="M259.087,11.209 L259.087,27.936 L257.341,27.936 L257.341,11.209 L254.130,11.209 L258.219,1.932 L262.308,11.209 L259.087,11.209 Z"/>
<path fill-rule="evenodd"  fill="rgb(255, 255, 255)"
 d="M282.065,11.209 L282.065,27.936 L280.262,27.936 L280.262,11.209 L277.042,11.209 L281.131,1.932 L285.220,11.209 L282.065,11.209 Z"/>
<path fill-rule="evenodd"  fill="rgb(255, 255, 255)"
 d="M236.588,11.209 L236.588,27.936 L234.730,27.936 L234.730,11.209 L231.575,11.209 L235.663,1.932 L239.753,11.209 L236.588,11.209 Z"/>
<path fill-rule="evenodd"  fill="rgb(255, 255, 255)"
 d="M279.052,60.936 L279.052,31.790 L282.571,31.790 L282.571,60.936 L279.052,60.936 ZM264.972,31.790 L268.492,31.790 L268.492,60.936 L264.972,60.936 L264.972,31.790 ZM250.893,31.790 L254.413,31.790 L254.413,60.936 L250.893,60.936 L250.893,31.790 ZM236.785,31.790 L240.362,31.790 L240.362,60.936 L236.785,60.936 L236.785,31.790 ZM221.833,31.790 L225.353,31.790 L225.353,60.936 L221.833,60.936 L221.833,31.790 ZM207.782,31.790 L211.274,31.790 L211.274,60.936 L207.782,60.936 L207.782,31.790 ZM193.675,31.790 L197.223,31.790 L197.223,60.936 L193.675,60.936 L193.675,31.790 ZM180.412,31.790 L183.988,31.790 L183.988,60.936 L180.412,60.936 L180.412,31.790 ZM166.333,31.790 L169.909,31.790 L169.909,60.936 L166.333,60.936 L166.333,31.790 ZM152.338,31.790 L155.830,31.790 L155.830,60.936 L152.338,60.936 L152.338,31.790 ZM138.259,31.790 L141.722,31.790 L141.722,60.936 L138.259,60.936 L138.259,31.790 ZM124.123,31.790 L127.615,31.790 L127.615,60.936 L124.123,60.936 L124.123,31.790 Z"/>
<path fill-rule="evenodd"  stroke="rgb(255, 255, 255)" stroke-width="1px" stroke-linecap="butt" stroke-linejoin="miter" fill="rgb(2, 15, 75)"
 d="M87.038,32.662 L113.564,32.662 L113.564,38.852 L87.038,38.852 C85.639,38.852 84.504,37.717 84.504,36.317 L84.504,35.197 C84.504,33.797 85.639,32.662 87.038,32.662 Z"/>
<path fill-rule="evenodd"  fill="rgb(0, 255, 0)"
 d="M87.742,34.772 L112.465,34.772 L112.465,36.798 L87.742,36.798 L87.742,34.772 Z"/>
<path fill-rule="evenodd"  stroke="rgb(255, 255, 255)" stroke-width="1px" stroke-linecap="butt" stroke-linejoin="miter" fill="rgb(2, 15, 75)"
 d="M294.905,32.662 L321.402,32.662 C322.802,32.662 323.936,33.797 323.936,35.197 L323.936,36.317 C323.936,37.717 322.802,38.852 321.402,38.852 L294.905,38.852 L294.905,32.662 Z"/>
<path fill-rule="evenodd"  fill="rgb(252, 30, 0)"
 d="M296.031,34.772 L320.726,34.772 L320.726,36.798 L296.031,36.798 L296.031,34.772 Z"/>
<path fill-rule="evenodd"  stroke="rgb(255, 255, 255)" stroke-width="1px" stroke-linecap="butt" stroke-linejoin="miter" fill="rgb(2, 15, 75)"
 d="M199.757,31.790 L200.799,31.790 C202.198,31.790 203.333,32.925 203.333,34.324 L203.333,60.936 L197.223,60.936 L197.223,34.324 C197.223,32.925 198.357,31.790 199.757,31.790 Z"/>
<path fill-rule="evenodd"  fill="rgb(0, 255, 0)"
 d="M199.250,35.054 L201.306,35.054 L201.306,59.783 L199.250,59.783 L199.250,35.054 Z"/>
<path fill-rule="evenodd"  stroke="rgb(255, 255, 255)" stroke-width="1px" stroke-linecap="butt" stroke-linejoin="miter" fill="rgb(2, 15, 75)"
 d="M205.023,31.790 L206.093,31.790 C207.492,31.790 208.627,32.925 208.627,34.324 L208.627,60.936 L202.488,60.936 L202.488,34.324 C202.488,32.925 203.623,31.790 205.023,31.790 Z"/>
<path fill-rule="evenodd"  fill="rgb(252, 30, 0)"
 d="M204.544,35.054 L206.600,35.054 L206.600,59.783 L204.544,59.783 L204.544,35.054 Z"/>
<path fill-rule="evenodd"  fill="rgb(4, 89, 154)"
 d="M357.389,90.982 L418.915,90.982 L418.915,270.414 L357.389,270.414 L357.389,90.982 Z"/>
<path fill-rule="evenodd"  opacity="0.4" fill="rgb(255, 255, 255)"
 d="M386.420,170.655 L419.000,170.655 L419.000,188.322 L386.420,188.322 L386.420,170.655 Z"/>
<path fill-rule="evenodd"  fill="rgb(255, 255, 255)"
 d="M399.486,109.690 L399.486,109.647 L399.090,109.647 L393.312,100.371 L389.492,100.371 L393.936,96.445 L398.381,100.371 L395.090,100.371 L399.739,107.834 L416.156,107.834 L416.156,109.690 L399.486,109.690 Z"/>
<path fill-rule="evenodd"  fill="rgb(255, 255, 255)"
 d="M416.156,153.831 L399.760,153.831 L395.090,161.328 L398.381,161.328 L393.936,165.255 L389.492,161.328 L393.312,161.328 L399.090,152.053 L400.868,152.053 L400.865,152.059 L416.156,152.059 L416.156,153.831 Z"/>
<path fill-rule="evenodd"  fill="rgb(255, 255, 255)"
 d="M399.486,131.353 L399.486,129.637 L416.156,129.637 L416.156,131.353 L399.486,131.353 ZM399.448,126.393 L399.448,134.597 L390.201,130.495 L399.448,126.393 Z"/>
<path fill-rule="evenodd"  fill="rgb(255, 255, 255)"
 d="M416.159,234.521 L406.912,238.623 L406.912,235.361 L390.222,235.361 L390.222,233.644 L406.912,233.644 L406.912,230.419 L416.159,234.521 Z"/>
<path fill-rule="evenodd"  fill="rgb(255, 255, 255)"
 d="M416.159,259.181 L406.912,263.283 L406.912,260.033 L390.222,260.033 L390.222,258.261 L406.912,258.261 L406.912,255.078 L416.159,259.181 Z"/>
<path fill-rule="evenodd"  fill="rgb(255, 255, 255)"
 d="M416.159,210.400 L406.912,214.503 L406.912,211.307 L390.222,211.307 L390.222,209.506 L406.912,209.506 L406.912,206.298 L416.159,210.400 Z"/>
<path fill-rule="evenodd"  fill="rgb(255, 255, 255)"
 d="M357.783,259.414 L357.783,255.841 L386.871,255.841 L386.871,259.414 L357.783,259.414 ZM357.783,241.747 L386.871,241.747 L386.871,245.348 L357.783,245.348 L357.783,241.747 ZM357.783,227.652 L386.871,227.652 L386.871,231.225 L357.783,231.225 L357.783,227.652 ZM357.783,213.529 L386.871,213.529 L386.871,217.046 L357.783,217.046 L357.783,213.529 ZM357.783,198.506 L386.871,198.506 L386.871,202.051 L357.783,202.051 L357.783,198.506 ZM357.783,184.384 L386.871,184.384 L386.871,187.900 L357.783,187.900 L357.783,184.384 ZM357.783,170.261 L386.871,170.261 L386.871,173.777 L357.783,173.777 L357.783,170.261 ZM357.783,157.010 L386.871,157.010 L386.871,160.527 L357.783,160.527 L357.783,157.010 ZM357.783,142.887 L386.871,142.887 L386.871,146.404 L357.783,146.404 L357.783,142.887 ZM357.783,128.793 L386.871,128.793 L386.871,132.281 L357.783,132.281 L357.783,128.793 ZM357.783,114.642 L386.871,114.642 L386.871,118.187 L357.783,118.187 L357.783,114.642 ZM357.783,100.519 L386.871,100.519 L386.871,104.036 L357.783,104.036 L357.783,100.519 Z"/>
<path fill-rule="evenodd"  stroke="rgb(255, 255, 255)" stroke-width="1px" stroke-linecap="butt" stroke-linejoin="miter" fill="rgb(2, 15, 75)"
 d="M382.450,57.982 L383.323,57.982 C384.723,57.982 385.857,59.117 385.857,60.516 L385.857,87.015 L379.916,87.015 L379.916,60.516 C379.916,59.117 381.050,57.982 382.450,57.982 Z"/>
<path fill-rule="evenodd"  fill="rgb(224, 16, 32)"
 d="M381.859,61.217 L383.858,61.217 L383.858,85.918 L381.859,85.918 L381.859,61.217 Z"/>
<path fill-rule="evenodd"  stroke="rgb(255, 255, 255)" stroke-width="1px" stroke-linecap="butt" stroke-linejoin="miter" fill="rgb(2, 15, 75)"
 d="M357.389,174.228 L383.886,174.228 C385.286,174.228 386.420,175.362 386.420,176.762 L386.420,177.826 C386.420,179.226 385.286,180.361 383.886,180.361 L357.389,180.361 L357.389,174.228 Z"/>
<path fill-rule="evenodd"  fill="rgb(224, 16, 32)"
 d="M358.487,176.281 L383.210,176.281 L383.210,178.335 L358.487,178.335 L358.487,176.281 Z"/>
<path fill-rule="evenodd"  stroke="rgb(255, 255, 255)" stroke-width="1px" stroke-linecap="butt" stroke-linejoin="miter" fill="rgb(2, 15, 75)"
 d="M357.389,179.488 L383.886,179.488 C385.286,179.488 386.420,180.623 386.420,182.023 L386.420,183.143 C386.420,184.543 385.286,185.678 383.886,185.678 L357.389,185.678 L357.389,179.488 Z"/>
<path fill-rule="evenodd"  fill="rgb(84, 202, 1)"
 d="M358.487,181.570 L383.210,181.570 L383.210,183.652 L358.487,183.652 L358.487,181.570 Z"/>
<path fill-rule="evenodd"  stroke="rgb(255, 255, 255)" stroke-width="1px" stroke-linecap="butt" stroke-linejoin="miter" fill="rgb(2, 15, 75)"
 d="M379.916,274.156 L385.857,274.156 L385.857,300.683 C385.857,302.083 384.723,303.217 383.323,303.217 L382.450,303.217 C381.050,303.217 379.916,302.083 379.916,300.683 L379.916,274.156 Z"/>
<path fill-rule="evenodd"  fill="rgb(84, 202, 1)"
 d="M381.859,275.309 L383.858,275.309 L383.858,300.038 L381.859,300.038 L381.859,275.309 Z"/>
<path fill-rule="evenodd"  fill="rgb(1, 54, 109)"
 d="M114.127,290.220 L293.018,290.220 L293.018,352.000 L114.127,352.000 L114.127,290.220 Z"/>
<path fill-rule="evenodd"  fill="rgb(255, 255, 255)"
 d="M279.052,319.169 L279.052,290.051 L282.571,290.051 L282.571,319.169 L279.052,319.169 ZM264.972,290.051 L268.492,290.051 L268.492,319.169 L264.972,319.169 L264.972,290.051 ZM250.893,290.051 L254.413,290.051 L254.413,319.169 L250.893,319.169 L250.893,290.051 ZM236.785,290.051 L240.362,290.051 L240.362,319.169 L236.785,319.169 L236.785,290.051 ZM221.833,290.051 L225.353,290.051 L225.353,319.169 L221.833,319.169 L221.833,290.051 ZM207.782,290.051 L211.274,290.051 L211.274,319.169 L207.782,319.169 L207.782,290.051 ZM193.675,290.051 L197.223,290.051 L197.223,319.169 L193.675,319.169 L193.675,290.051 ZM180.412,290.051 L183.988,290.051 L183.988,319.169 L180.412,319.169 L180.412,290.051 ZM166.333,290.051 L169.909,290.051 L169.909,319.169 L166.333,319.169 L166.333,290.051 ZM152.338,290.051 L155.830,290.051 L155.830,319.169 L152.338,319.169 L152.338,290.051 ZM138.259,290.051 L141.722,290.051 L141.722,319.169 L138.259,319.169 L138.259,290.051 ZM124.123,290.051 L127.615,290.051 L127.615,319.169 L124.123,319.169 L124.123,290.051 Z"/>
<path fill-rule="evenodd"  fill="rgb(0, 186, 255)"
 d="M102.949,26.299 L98.776,30.721 L94.109,25.776 C90.661,23.971 88.305,20.366 88.305,16.205 C88.305,10.238 93.142,5.402 99.108,5.402 L99.128,5.402 C105.094,5.402 109.931,10.238 109.931,16.205 C109.931,20.824 107.027,24.755 102.949,26.299 Z"/>
<text font-family="Source Han Sans CN" fill="rgb(0, 6, 36)" transform="matrix( 0.35451921851722, 0, 0, 0.35399921863458,93.0977374327975, 20.0841128817085)" font-weight="bold" font-size="34px">&#49;&#35;</text>
<path fill-rule="evenodd"  fill="rgb(0, 186, 255)"
 d="M312.899,26.299 L308.726,30.721 L304.059,25.776 C300.612,23.971 298.256,20.366 298.256,16.205 C298.256,10.238 303.093,5.402 309.059,5.402 L309.078,5.402 C315.045,5.402 319.882,10.238 319.882,16.205 C319.882,20.824 316.977,24.755 312.899,26.299 Z"/>
<text font-family="Source Han Sans CN" fill="rgb(0, 6, 36)" transform="matrix( 0.35451921851722, 0, 0, 0.35399921863458,302.189331293066, 20.1009278445936)" font-weight="bold" font-size="34px">&#52;&#35;</text>
<path fill-rule="evenodd"  fill="rgb(0, 186, 255)"
 d="M197.798,42.393 L191.391,44.554 C188.315,46.937 184.053,47.574 180.275,45.831 C174.878,43.340 172.523,36.950 175.015,31.557 L175.056,31.470 C177.548,26.078 183.944,23.725 189.342,26.215 C193.533,28.149 195.877,32.435 195.554,36.779 L197.798,42.393 Z"/>
<text font-family="Source Han Sans CN" fill="rgb(0, 6, 36)" transform="matrix( 0.35451921851722, 0, 0, 0.35399921863458,178.284874222456, 40.1009278445936)" font-weight="bold" font-size="34px">&#50;&#35;</text>
<path fill-rule="evenodd"  fill="rgb(0, 186, 255)"
 d="M225.410,45.829 C221.686,47.575 217.484,46.938 214.453,44.551 L208.137,42.387 L210.349,36.766 C210.030,32.417 212.340,28.125 216.472,26.188 C221.793,23.695 228.098,26.051 230.556,31.450 L230.595,31.537 C233.052,36.937 230.731,43.336 225.410,45.829 Z"/>
<text font-family="Source Han Sans CN" fill="rgb(0, 6, 36)" transform="matrix( 0.35996872183605, 0, 0, 0.35743886269872,213.669233534439, 39.6456328984953)" font-weight="bold" font-size="34px">&#51;&#35;</text>
<path fill-rule="evenodd"  fill="rgb(0, 186, 255)"
 d="M102.949,308.079 L98.776,312.502 L94.109,307.556 C90.661,305.751 88.305,302.146 88.305,297.985 C88.305,292.018 93.142,287.182 99.108,287.182 L99.128,287.182 C105.094,287.182 109.931,292.018 109.931,297.985 C109.931,302.604 107.027,306.534 102.949,308.079 Z"/>
<text font-family="Source Han Sans CN" fill="rgb(0, 6, 36)" transform="matrix( 0.35451921851722, 0, 0, 0.35399921863458,90.7057962654617, 300.562318033441)" font-weight="bold" font-size="30.517px">&#49;&#50;&#35;</text>
<path fill-rule="evenodd"  fill="rgb(0, 186, 255)"
 d="M312.900,308.079 L308.726,312.502 L304.059,307.556 C300.612,305.751 298.256,302.146 298.256,297.985 C298.256,292.018 303.093,287.182 309.059,287.182 L309.078,287.182 C315.045,287.182 319.882,292.018 319.882,297.985 C319.882,302.604 316.977,306.534 312.900,308.079 Z"/>
<text font-family="Source Han Sans CN" fill="rgb(0, 6, 36)" transform="matrix( 0.35451921851722, 0, 0, 0.35399921863458,302.31500835603, 302.137035764894)" font-weight="bold" font-size="34px">&#57;&#35;</text>
<path fill-rule="evenodd"  fill="rgb(0, 186, 255)"
 d="M376.650,289.324 L371.753,293.957 C369.961,297.417 366.355,299.785 362.190,299.785 C356.241,299.785 351.419,294.963 351.419,289.014 L351.419,288.950 C351.419,283.001 356.241,278.179 362.190,278.179 C366.810,278.179 370.739,281.093 372.269,285.179 L376.650,289.324 Z"/>
<text font-family="Source Han Sans CN" fill="rgb(0, 6, 36)" transform="matrix( 0.35445248203827, -0.00687228134443, 0.00684414621649, 0.35235954635393,355.565807647623, 294.207148132323)" font-weight="bold" font-size="34px">&#56;&#35;</text>
<path fill-rule="evenodd"  fill="rgb(0, 186, 255)"
 d="M376.650,73.263 L371.753,77.896 C369.961,81.356 366.355,83.724 362.190,83.724 C356.241,83.724 351.419,78.902 351.419,72.953 L351.419,72.888 C351.419,66.940 356.241,62.118 362.190,62.118 C366.810,62.118 370.739,65.032 372.269,69.118 L376.650,73.263 Z"/>
<text font-family="Source Han Sans CN" fill="rgb(0, 6, 36)" transform="matrix( 0.35451921851722, 0, 0, 0.35242588877398,355.253676531226, 78.0804792763954)" font-weight="bold" font-size="34px">&#53;&#35;</text>
<path fill-rule="evenodd"  fill="rgb(0, 186, 255)"
 d="M374.664,167.099 L374.044,173.112 L367.365,172.055 C363.533,172.740 359.462,171.327 356.925,168.032 C353.301,163.323 354.184,156.571 358.897,152.950 L358.973,152.891 C363.686,149.271 370.445,150.153 374.069,154.861 C376.883,158.518 376.968,163.401 374.664,167.099 Z"/>
<text font-family="Source Han Sans CN" fill="rgb(0, 6, 36)" transform="matrix( 0.3541999038683, -0.01502973532981, 0.01496820357561, 0.35210845958236,358.514089402426, 166.32490311594)" font-weight="bold" font-size="34px">&#54;&#35;</text>
<path fill-rule="evenodd"  fill="rgb(0, 186, 255)"
 d="M375.001,192.371 C377.306,196.078 377.221,200.974 374.407,204.640 C370.783,209.360 364.024,210.244 359.311,206.614 L359.235,206.556 C354.522,202.926 353.639,196.157 357.263,191.436 C359.800,188.132 363.871,186.716 367.702,187.403 L374.381,186.343 L375.001,192.371 Z"/>
<text font-family="Source Han Sans CN" fill="rgb(0, 6, 36)" transform="matrix( 0.3577483805783, -0.01486907926227, 0.01511815935255, 0.34834469666681,359.518043948469, 202.805011994247)" font-weight="bold" font-size="34px">&#55;&#35;</text>
<path fill-rule="evenodd"  fill="rgb(0, 186, 255)"
 d="M55.909,299.785 C51.744,299.785 48.138,297.417 46.346,293.957 L41.449,289.324 L45.830,285.179 C47.360,281.093 51.289,278.179 55.909,278.179 C61.857,278.179 66.679,283.001 66.679,288.950 L66.679,289.014 C66.679,294.963 61.857,299.785 55.909,299.785 Z"/>
<text font-family="Source Han Sans CN" fill="rgb(0, 6, 36)" transform="matrix( 0.35464496701897, -0.00687007065777, 0.0068478629216, 0.35224619876063,47.7395792656175, 292.722060926822)" font-weight="bold" font-size="30.663px">&#49;&#51;&#35;</text>
<path fill-rule="evenodd"  fill="rgb(0, 186, 255)"
 d="M55.909,83.724 C51.744,83.724 48.138,81.356 46.346,77.896 L41.449,73.263 L45.830,69.118 C47.360,65.032 51.289,62.118 55.909,62.118 C61.857,62.118 66.679,66.940 66.679,72.888 L66.679,72.953 C66.679,78.902 61.857,83.724 55.909,83.724 Z"/>
<text font-family="Source Han Sans CN" fill="rgb(0, 6, 36)" transform="matrix( 0.35471173973909, 0, 0, 0.35231251983955,45.6591645987428, 77.5515939781549)" font-weight="bold" font-size="30.663px">&#49;&#54;&#35;</text>
<path fill-rule="evenodd"  fill="rgb(0, 186, 255)"
 d="M61.173,168.032 C58.637,171.327 54.566,172.740 50.734,172.055 L44.055,173.112 L43.435,167.099 C41.130,163.401 41.216,158.518 44.030,154.861 C47.654,150.153 54.412,149.271 59.125,152.891 L59.202,152.950 C63.915,156.571 64.797,163.323 61.173,168.032 Z"/>
<text font-family="Source Han Sans CN" fill="rgb(0, 6, 36)" transform="matrix( 0.35439225168674, -0.01502490054005, 0.01497633203999, 0.35199519275907,43.8396773285584, 165.929993234434)" font-weight="bold" font-size="30.663px">&#49;&#53;&#35;</text>
<path fill-rule="evenodd"  fill="rgb(0, 186, 255)"
 d="M58.864,206.556 L58.788,206.614 C54.075,210.244 47.316,209.360 43.692,204.640 C40.878,200.974 40.792,196.078 43.097,192.371 L43.717,186.343 L50.396,187.403 C54.228,186.716 58.299,188.132 60.835,191.436 C64.459,196.157 63.577,202.926 58.864,206.556 Z"/>
<text font-family="Source Han Sans CN" fill="rgb(0, 6, 36)" transform="matrix( 0.35794265539262, -0.01486429615261, 0.01512636925024, 0.3482326405769,43.6695478073209, 201.87860160065)" font-weight="bold" font-size="30.993px">&#49;&#52;&#35;</text>
<path fill-rule="evenodd"  fill="rgb(0, 186, 255)"
 d="M197.798,306.168 L191.391,308.329 C188.315,310.712 184.053,311.349 180.275,309.606 C174.878,307.115 172.523,300.725 175.015,295.332 L175.056,295.245 C177.548,289.852 183.944,287.500 189.342,289.990 C193.533,291.924 195.877,296.210 195.554,300.554 L197.798,306.168 Z"/>
<text font-family="Source Han Sans CN" fill="rgb(0, 6, 36)" transform="matrix( 0.35451921851722, 0, 0, 0.35399921863458,175.705796265462, 302.564973027581)" font-weight="bold" font-size="30.517px">&#49;&#49;&#35;</text>
<path fill-rule="evenodd"  fill="rgb(0, 186, 255)"
 d="M225.410,309.604 C221.686,311.350 217.484,310.713 214.453,308.326 L208.137,306.162 L210.349,300.541 C210.030,296.191 212.340,291.900 216.472,289.963 C221.793,287.470 228.098,289.825 230.556,295.225 L230.595,295.312 C233.052,300.712 230.731,307.111 225.410,309.604 Z"/>
<text font-family="Source Han Sans CN" fill="rgb(0, 6, 36)" transform="matrix( 0.29452959332179, 0, 0, 0.29245964019064,212.625676088418, 302.606133348277)" font-weight="bold" font-size="36.939px">&#49;&#48;&#35;</text>
<path fill-rule="evenodd"  opacity="0.4" fill="rgb(255, 255, 255)"
 d="M193.675,319.169 L211.274,319.169 L211.274,351.859 L193.675,351.859 L193.675,319.169 Z"/>
<path fill-rule="evenodd"  stroke="rgb(255, 255, 255)" stroke-width="1px" stroke-linecap="butt" stroke-linejoin="miter" fill="rgb(2, 15, 75)"
 d="M87.038,312.980 L113.564,312.980 L113.564,319.169 L87.038,319.169 C85.639,319.169 84.504,318.034 84.504,316.634 L84.504,315.514 C84.504,314.114 85.639,312.980 87.038,312.980 Z"/>
<path fill-rule="evenodd"  fill="rgb(252, 30, 0)"
 d="M87.742,315.118 L112.465,315.118 L112.465,317.171 L87.742,317.171 L87.742,315.118 Z"/>
<path fill-rule="evenodd"  stroke="rgb(255, 255, 255)" stroke-width="1px" stroke-linecap="butt" stroke-linejoin="miter" fill="rgb(2, 15, 75)"
 d="M294.905,312.980 L321.402,312.980 C322.802,312.980 323.936,314.114 323.936,315.514 L323.936,316.634 C323.936,318.034 322.802,319.169 321.402,319.169 L294.905,319.169 L294.905,312.980 Z"/>
<path fill-rule="evenodd"  fill="rgb(0, 255, 0)"
 d="M296.031,315.118 L320.726,315.118 L320.726,317.171 L296.031,317.171 L296.031,315.118 Z"/>
<path fill-rule="evenodd"  stroke="rgb(255, 255, 255)" stroke-width="1px" stroke-linecap="butt" stroke-linejoin="miter" fill="rgb(2, 15, 75)"
 d="M197.223,290.051 L203.333,290.051 L203.333,316.634 C203.333,318.034 202.198,319.169 200.799,319.169 L199.757,319.169 C198.357,319.169 197.223,318.034 197.223,316.634 L197.223,290.051 Z"/>
<path fill-rule="evenodd"  fill="rgb(252, 30, 0)"
 d="M199.250,291.205 L201.306,291.205 L201.306,315.990 L199.250,315.990 L199.250,291.205 Z"/>
<path fill-rule="evenodd"  stroke="rgb(255, 255, 255)" stroke-width="1px" stroke-linecap="butt" stroke-linejoin="miter" fill="rgb(2, 15, 75)"
 d="M202.488,290.051 L208.627,290.051 L208.627,316.634 C208.627,318.034 207.492,319.169 206.093,319.169 L205.023,319.169 C203.623,319.169 202.488,318.034 202.488,316.634 L202.488,290.051 Z"/>
<path fill-rule="evenodd"  fill="rgb(0, 255, 0)"
 d="M204.544,291.205 L206.600,291.205 L206.600,315.990 L204.544,315.990 L204.544,291.205 Z"/>
<path fill-rule="evenodd"  fill="rgb(255, 255, 255)"
 d="M287.575,326.897 L283.661,331.356 L283.661,328.054 L276.179,332.745 L276.179,349.187 L274.377,349.187 L274.377,332.419 L274.416,332.419 L274.416,332.067 L283.661,326.270 L283.661,322.438 L287.575,326.897 Z"/>
<path fill-rule="evenodd"  fill="rgb(255, 255, 255)"
 d="M233.857,349.187 L233.857,332.710 L226.432,328.054 L226.432,331.356 L222.518,326.897 L226.432,322.438 L226.432,326.270 L235.677,332.067 L235.677,332.419 L235.772,332.419 L235.772,349.187 L233.857,349.187 Z"/>
<path fill-rule="evenodd"  fill="rgb(255, 255, 255)"
 d="M257.707,332.426 L257.707,349.187 L255.962,349.187 L255.962,332.426 L252.739,332.426 L256.828,323.149 L260.917,332.426 L257.707,332.426 Z"/>
<path fill-rule="evenodd"  fill="rgb(255, 255, 255)"
 d="M151.437,323.164 L153.211,323.164 L153.211,339.903 L151.437,339.903 L151.437,323.164 ZM152.305,349.191 L148.216,339.914 L156.394,339.914 L152.305,349.191 Z"/>
<path fill-rule="evenodd"  fill="rgb(255, 255, 255)"
 d="M125.221,323.164 L126.995,323.164 L126.995,339.903 L125.221,339.903 L125.221,323.164 ZM126.077,349.191 L121.987,339.914 L130.166,339.914 L126.077,349.191 Z"/>
<path fill-rule="evenodd"  fill="rgb(255, 255, 255)"
 d="M177.850,323.164 L179.595,323.164 L179.595,339.903 L177.850,339.903 L177.850,323.164 ZM178.708,349.191 L174.619,339.914 L182.798,339.914 L178.708,349.191 Z"/>
</svg>