<?xml version="1.0" encoding="utf-8"?>
<!-- Generator: Adobe Illustrator 16.0.0, SVG Export Plug-In . SVG Version: 6.00 Build 0)  -->
<!DOCTYPE svg PUBLIC "-//W3C//DTD SVG 1.1//EN" "http://www.w3.org/Graphics/SVG/1.1/DTD/svg11.dtd">
<svg version="1.1" id="图层_1" xmlns="http://www.w3.org/2000/svg" xmlns:xlink="http://www.w3.org/1999/xlink" x="0px" y="0px"
	 width="60px" height="60px" viewBox="0 0 60 60" enable-background="new 0 0 60 60" xml:space="preserve">
<g>
	
		<image overflow="visible" opacity="0.6" width="63" height="63" xlink:href="3D5926CF.png"  transform="matrix(1 0 0 1 -1.5 -1.5)">
	</image>
	<g>
		<linearGradient id="SVGID_1_" gradientUnits="userSpaceOnUse" x1="14.7573" y1="30.0049" x2="45.2432" y2="30.0049">
			<stop  offset="0" style="stop-color:#0086A3"/>
			<stop  offset="1" style="stop-color:#00A483"/>
		</linearGradient>
		<ellipse fill="url(#SVGID_1_)" cx="30" cy="30.005" rx="15.244" ry="15.31"/>
		<ellipse fill="none" stroke="#FFFFFF" stroke-miterlimit="10" cx="30" cy="30.005" rx="15.244" ry="15.31"/>
	</g>
</g>
<g>
	<g>
		<path fill="#FFFFFF" d="M40.521,24.133H19.791c-0.69,0-1.249,0.757-1.249,1.69l-0.312,4.787l0.312,2.229
			c0,0.935,0.559,1.691,1.249,1.691h3.936c-0.001-0.028-0.001-0.06-0.002-0.091c0-1.249,1.007-2.264,2.249-2.264
			c1.241,0,2.248,1.015,2.248,2.264c0,0.031-0.001,0.063-0.002,0.091h5.999c-0.001-0.028-0.001-0.06-0.001-0.091
			c0-1.249,1.005-2.264,2.248-2.264c1.24,0,2.247,1.015,2.247,2.264c0,0.031-0.001,0.063-0.002,0.091h1.813
			c0.688,0,1.249-0.757,1.249-1.691v-7.014C41.771,24.89,41.21,24.133,40.521,24.133z M23.603,30.521l-0.596,0.358l-2.997,1.988
			v-6.227c0-0.069,0.056-0.125,0.125-0.125h3.372c0.069,0,0.125,0.055,0.125,0.125L23.603,30.521z M29.45,28.445
			c0,0.068-0.057,0.125-0.126,0.125h-2.913c-0.069,0-0.125-0.057-0.125-0.125v-1.803c0-0.069,0.056-0.125,0.125-0.125h2.913
			c0.069,0,0.126,0.055,0.126,0.125V28.445z M34.216,28.445c0,0.068-0.056,0.125-0.124,0.125h-2.915
			c-0.067,0-0.125-0.057-0.125-0.125v-1.803c0-0.069,0.058-0.125,0.125-0.125h2.915c0.068,0,0.124,0.055,0.124,0.125V28.445z
			 M38.982,28.445c0,0.068-0.057,0.125-0.125,0.125h-2.913c-0.069,0-0.126-0.057-0.126-0.125v-1.803
			c0-0.069,0.057-0.125,0.126-0.125h2.913c0.068,0,0.125,0.055,0.125,0.125V28.445z M36.464,33.004
			c-0.789,0-1.426,0.643-1.426,1.437c0,0.792,0.637,1.435,1.426,1.435c0.788,0,1.425-0.642,1.425-1.435
			C37.889,33.646,37.252,33.004,36.464,33.004z M25.973,33.004c-0.788,0-1.426,0.643-1.426,1.437c0,0.792,0.638,1.435,1.426,1.435
			c0.788,0,1.426-0.642,1.426-1.435C27.399,33.646,26.76,33.004,25.973,33.004z"/>
	</g>
</g>
</svg>
