<?xml version="1.0" encoding="utf-8"?>
<!-- Generator: Adobe Illustrator 16.0.0, SVG Export Plug-In . SVG Version: 6.00 Build 0)  -->
<!DOCTYPE svg PUBLIC "-//W3C//DTD SVG 1.0//EN" "http://www.w3.org/TR/2001/REC-SVG-20010904/DTD/svg10.dtd">
<svg version="1.0" id="图层_1" xmlns="http://www.w3.org/2000/svg" xmlns:xlink="http://www.w3.org/1999/xlink" x="0px" y="0px"
	 width="60px" height="60px" viewBox="0 0 60 60" enable-background="new 0 0 60 60" xml:space="preserve">
<g>
	<image overflow="visible" opacity="0.68" width="64" height="64" xlink:href="./D0975C37.png"  transform="matrix(1 0 0 1 -2 -2)">
	</image>
	<g>
		<g>
			<linearGradient id="SVGID_1_" gradientUnits="userSpaceOnUse" x1="14.6865" y1="29.9541" x2="45.3828" y2="29.9541">
				<stop  offset="0" style="stop-color:#00D593"/>
				<stop  offset="1" style="stop-color:#00AFD5"/>
			</linearGradient>
			<path fill-rule="evenodd" clip-rule="evenodd" fill="url(#SVGID_1_)" d="M30.035,14.538c8.477,0,15.348,6.902,15.348,15.416
				S38.512,45.37,30.035,45.37c-8.476,0-15.348-6.903-15.348-15.417S21.559,14.538,30.035,14.538z"/>
		</g>
		<g>
			<path fill="none" stroke="#FFFFFF" stroke-width="2" stroke-miterlimit="10" d="M30.035,14.538
				c8.477,0,15.348,6.902,15.348,15.416S38.512,45.37,30.035,45.37c-8.476,0-15.348-6.903-15.348-15.417
				S21.559,14.538,30.035,14.538z"/>
		</g>
	</g>
</g>
<g>
	<g>
		<path fill="#FFFFFF" d="M40.629,24.041H19.754c-0.695,0-1.258,0.762-1.258,1.702l-0.313,4.82l0.313,2.246
			c0,0.94,0.563,1.7,1.258,1.7h3.964c-0.001-0.029-0.001-0.06-0.002-0.09c0-1.258,1.014-2.28,2.264-2.28
			c1.25,0,2.263,1.022,2.263,2.28c0,0.03-0.001,0.061-0.002,0.09h6.04c-0.001-0.029-0.001-0.06-0.001-0.09
			c0-1.258,1.012-2.28,2.264-2.28c1.251,0,2.262,1.022,2.262,2.28c0,0.03,0,0.061-0.001,0.09h1.824c0.695,0,1.259-0.76,1.259-1.7
			v-7.065C41.888,24.803,41.324,24.041,40.629,24.041z M23.594,30.474l-0.601,0.361l-3.018,2.001v-6.269
			c0-0.069,0.056-0.126,0.126-0.126h3.395c0.069,0,0.125,0.057,0.125,0.126L23.594,30.474z M29.48,28.383
			c0,0.069-0.056,0.126-0.127,0.126h-2.933c-0.07,0-0.126-0.057-0.126-0.126v-1.816c0-0.069,0.056-0.126,0.126-0.126h2.933
			c0.071,0,0.127,0.057,0.127,0.126V28.383z M34.28,28.383c0,0.069-0.058,0.126-0.126,0.126h-2.936
			c-0.068,0-0.124-0.057-0.124-0.126v-1.816c0-0.069,0.056-0.126,0.124-0.126h2.936c0.068,0,0.126,0.057,0.126,0.126V28.383z
			 M39.08,28.383c0,0.069-0.058,0.126-0.127,0.126h-2.933c-0.07,0-0.127-0.057-0.127-0.126v-1.816c0-0.069,0.057-0.126,0.127-0.126
			h2.933c0.069,0,0.127,0.057,0.127,0.126V28.383z M36.544,32.973c-0.795,0-1.437,0.647-1.437,1.446s0.642,1.445,1.437,1.445
			c0.792,0,1.435-0.646,1.435-1.445S37.336,32.973,36.544,32.973z M25.98,32.973c-0.793,0-1.437,0.647-1.437,1.446
			s0.644,1.445,1.437,1.445c0.792,0,1.435-0.646,1.435-1.445S26.772,32.973,25.98,32.973z"/>
	</g>
</g>
</svg>
