<?xml version="1.0" encoding="utf-8"?>
<!-- Generator: Adobe Illustrator 16.0.0, SVG Export Plug-In . SVG Version: 6.00 Build 0)  -->
<!DOCTYPE svg PUBLIC "-//W3C//DTD SVG 1.0//EN" "http://www.w3.org/TR/2001/REC-SVG-20010904/DTD/svg10.dtd">
<svg version="1.0" id="图层_1" xmlns="http://www.w3.org/2000/svg" xmlns:xlink="http://www.w3.org/1999/xlink" x="0px" y="0px"
	 width="60px" height="60px" viewBox="0 0 60 60" enable-background="new 0 0 60 60" xml:space="preserve">
<g>
	<g>
		<path fill-rule="evenodd" clip-rule="evenodd" fill="#FFFFFF" d="M48.096,0.049L45.809,0.05l-0.021,11.139h2.29L48.096,0.049z
			 M44.664,0.049l-2.29,0l-0.019,11.14l2.287,0L44.664,0.049z M41.231,0.05h-2.289l-0.02,11.139l2.288,0L41.231,0.05z M37.798,0.05
			l-2.288,0l-0.021,11.139l2.287,0L37.798,0.05z M34.365,0.05h-2.289l-0.021,11.141l2.288-0.001L34.365,0.05z M30.931,0.052h-2.289
			l-0.021,11.139l2.29,0L30.931,0.052z M27.498,0.052H25.21L25.188,11.19h2.289L27.498,0.052z M24.064,0.051l-2.288,0.001
			l-0.021,11.139l2.288,0L24.064,0.051z M20.632,0.052l-2.29,0.001l-0.022,11.138h2.29L20.632,0.052z M17.199,0.053h-2.288
			l-0.022,11.139l2.29,0L17.199,0.053z M13.765,0.053h-2.289l-0.02,11.14l2.288,0L13.765,0.053z M46.639,59.999l2.288-0.002
			l0.023-11.14l-2.29,0.003L46.639,59.999z M43.207,59.997l2.287,0.002l0.023-11.142l-2.29,0.003L43.207,59.997z M39.772,59.999
			h2.29l0.021-11.142l-2.291,0.003L39.772,59.999z M36.34,59.998l2.29-0.001l0.02-11.138h-2.288L36.34,59.998z M32.908,59.998h2.289
			l0.02-11.137l-2.289-0.002L32.908,59.998z M29.474,59.998L31.763,60l0.022-11.141h-2.291L29.474,59.998z M26.042,59.998L28.33,60
			l0.021-11.139h-2.29L26.042,59.998z M22.608,59.999L24.896,60l0.021-11.137l-2.289-0.001L22.608,59.999z M19.175,59.998
			l2.29,0.001l0.02-11.14h-2.289L19.175,59.998z M15.742,60l2.289-0.002l0.021-11.137h-2.29L15.742,60z M12.309,60h2.289
			l0.022-11.137l-2.29-0.002L12.309,60z M0.182,14.673l10.629,0l0.005-2.413l-10.63,0L0.182,14.673z M0.174,18.293l10.631,0
			l0.003-2.413L0.18,15.881L0.174,18.293z M0.169,21.914l10.629-0.001l0.005-2.413l-10.629,0L0.169,21.914z M0.162,25.532l10.63,0
			l0.005-2.413l-10.629,0L0.162,25.532z M0.155,29.152l10.63-0.001l0.004-2.413l-10.629,0L0.155,29.152z M0.147,32.772l10.631-0.002
			l0.004-2.412H0.152L0.147,32.772z M0.141,36.392l10.63-0.003l0.005-2.412L0.146,33.979L0.141,36.392z M0.135,40.011l10.629-0.002
			l0.004-2.41l-10.63-0.001L0.135,40.011z M0.127,43.632l10.629-0.002l0.005-2.411L0.132,41.218L0.127,43.632z M0.121,47.251
			l10.63-0.003l0.004-2.41H0.125L0.121,47.251z M0.115,50.873l10.629-0.001l0.004-2.415l-10.63,0.001L0.115,50.873z M49.31,11.983
			l-0.005,2.414l10.629-0.001l0.006-2.413H49.31z M49.297,18.017l10.63,0l0.005-2.413l-10.629,0.001L49.297,18.017z M49.291,21.636
			l10.629-0.001l0.005-2.413l-10.628,0.001L49.291,21.636z M49.284,25.256l10.63-0.001l0.004-2.414l-10.631,0.001L49.284,25.256z
			 M49.277,28.876l10.629-0.001l0.005-2.414l-10.629,0.001L49.277,28.876z M49.271,32.497l10.631-0.002l0.003-2.413l-10.63,0
			L49.271,32.497z M49.265,36.117l10.63-0.002l0.002-2.413l-10.63,0.002L49.265,36.117z M49.257,39.738l10.629-0.005l0.006-2.412
			l-10.631,0.004L49.257,39.738z M49.252,43.356l10.63-0.001l0.005-2.414l-10.631,0.002L49.252,43.356z M49.244,46.978l10.63-0.004
			l0.004-2.413l-10.631,0.002L49.244,46.978z M49.236,50.596l10.63,0.001l0.006-2.417l-10.631,0.003L49.236,50.596z"/>
	</g>
</g>
</svg>
