<?xml version="1.0" encoding="utf-8"?>
<!-- Generator: Adobe Illustrator 16.0.0, SVG Export Plug-In . SVG Version: 6.00 Build 0)  -->
<!DOCTYPE svg PUBLIC "-//W3C//DTD SVG 1.0//EN" "http://www.w3.org/TR/2001/REC-SVG-20010904/DTD/svg10.dtd">
<svg version="1.0" id="图层_1" xmlns="http://www.w3.org/2000/svg" xmlns:xlink="http://www.w3.org/1999/xlink" x="0px" y="0px"
	 width="60px" height="60px" viewBox="0 0 60 60" enable-background="new 0 0 60 60" xml:space="preserve">
<path fill-rule="evenodd" clip-rule="evenodd" fill="#00D299" stroke="#FFFFFF" stroke-width="2" stroke-miterlimit="10" d="
	M30.034,1.35c15.729,0,28.479,12.806,28.479,28.604c0,15.797-12.751,28.604-28.479,28.604c-15.727,0-28.478-12.808-28.478-28.604
	C1.556,14.156,14.307,1.35,30.034,1.35z"/>
<g>
	<g>
		<path fill="#FFFFFF" d="M49.694,18.983H10.959c-1.289,0-2.333,1.414-2.333,3.158l-0.583,8.943l0.583,4.165
			c0,1.744,1.044,3.158,2.333,3.158h7.355c-0.002-0.056-0.002-0.112-0.003-0.168c0-2.336,1.881-4.23,4.2-4.23
			s4.199,1.895,4.199,4.23c0,0.056-0.002,0.112-0.004,0.168h11.208c-0.002-0.056-0.003-0.112-0.004-0.168
			c0-2.336,1.881-4.23,4.201-4.23c2.319,0,4.198,1.895,4.198,4.23c0,0.056-0.002,0.112-0.004,0.168h3.388
			c1.287,0,2.333-1.414,2.333-3.158V22.142C52.027,20.397,50.981,18.983,49.694,18.983z M18.083,30.92l-1.113,0.668l-5.599,3.716
			V23.671c0-0.129,0.104-0.235,0.234-0.235h6.299c0.129,0,0.233,0.105,0.233,0.235L18.083,30.92z M29.006,27.039
			c0,0.129-0.105,0.235-0.235,0.235h-5.442c-0.129,0-0.234-0.105-0.234-0.235v-3.368c0-0.129,0.104-0.235,0.234-0.235h5.442
			c0.13,0,0.235,0.105,0.235,0.235V27.039z M37.911,27.039c0,0.129-0.105,0.235-0.232,0.235h-5.446
			c-0.127,0-0.231-0.105-0.231-0.235v-3.368c0-0.129,0.104-0.235,0.231-0.235h5.446c0.127,0,0.232,0.105,0.232,0.235V27.039z
			 M46.817,27.039c0,0.129-0.105,0.235-0.234,0.235H41.14c-0.129,0-0.233-0.105-0.233-0.235v-3.368c0-0.129,0.104-0.235,0.233-0.235
			h5.443c0.129,0,0.234,0.105,0.234,0.235V27.039z M42.112,35.557c-1.474,0-2.665,1.201-2.665,2.684c0,1.48,1.191,2.682,2.665,2.682
			c1.471,0,2.662-1.201,2.662-2.682C44.774,36.758,43.583,35.557,42.112,35.557z M22.511,35.557c-1.471,0-2.665,1.201-2.665,2.684
			c0,1.48,1.193,2.682,2.665,2.682s2.664-1.201,2.664-2.682C25.175,36.758,23.982,35.557,22.511,35.557z"/>
	</g>
</g>
</svg>
