<?xml version="1.0" encoding="utf-8"?>
<!-- Generator: Adobe Illustrator 16.0.0, SVG Export Plug-In . SVG Version: 6.00 Build 0)  -->
<!DOCTYPE svg PUBLIC "-//W3C//DTD SVG 1.0//EN" "http://www.w3.org/TR/2001/REC-SVG-20010904/DTD/svg10.dtd">
<svg version="1.0" id="图层_1" xmlns="http://www.w3.org/2000/svg" xmlns:xlink="http://www.w3.org/1999/xlink" x="0px" y="0px"
	 width="60px" height="60px" viewBox="0 0 60 60" enable-background="new 0 0 60 60" xml:space="preserve">
<g>
	<g>
		<g enable-background="new    ">
			<g>
				<polygon fill="#202020" points="14.062,42.77 9.503,40.29 9.504,39.841 14.063,42.32 				"/>
			</g>
			<g>
				<polygon fill="#202020" points="14.063,42.32 9.504,39.841 54.266,33.55 58.824,36.029 				"/>
			</g>
			<g>
				<polygon fill="#202020" points="58.824,36.029 58.823,36.479 14.062,42.77 14.063,42.32 				"/>
			</g>
		</g>
	</g>
</g>
<g>
	<g>
		<g enable-background="new    ">
			<g>
				<polygon fill="#343635" points="18.118,39.266 17.207,38.77 17.217,33.011 18.129,33.507 				"/>
			</g>
			<g>
				<polygon fill="#3C3D3D" points="18.129,33.507 17.217,33.011 51.325,28.217 52.237,28.713 				"/>
			</g>
			<g>
				<polygon fill="#424343" points="52.237,28.713 52.227,34.472 18.118,39.266 18.129,33.507 				"/>
			</g>
		</g>
	</g>
</g>
<g>
	<g enable-background="new    ">
		<g>
			<polygon fill="#666668" points="6.024,42.486 5.05,41.956 6.231,41.791 7.206,42.32 			"/>
		</g>
		<g>
			<polygon fill="#505152" points="2.557,44.859 1.583,44.331 1.586,42.443 2.561,42.973 			"/>
		</g>
		<g>
			<polygon fill="#666668" points="2.561,42.973 1.586,42.443 2.768,42.277 3.742,42.808 			"/>
		</g>
		<g>
			<polygon fill="#505152" points="3.742,42.808 2.768,42.277 2.804,22.81 3.778,23.341 			"/>
		</g>
		<g>
			<polygon fill="#666668" points="3.778,23.341 2.804,22.81 5.086,22.489 6.061,23.02 			"/>
		</g>
		<g>
			<polygon fill="#767777" points="6.061,23.02 6.024,42.486 7.206,42.32 7.202,44.206 2.557,44.859 2.561,42.973 3.742,42.808 
				3.778,23.341 			"/>
		</g>
	</g>
</g>
<g>
	<polygon fill="#DFDFDF" points="5.933,23.417 5.928,26.219 3.83,26.515 3.834,23.711 	"/>
</g>
<g>
	<g>
		<g>
			<polygon fill="#5A5B5B" points="50.152,34.954 48.936,34.291 48.958,21.797 50.177,21.459 			"/>
		</g>
	</g>
	<g>
		<polygon fill="#5A5B5B" points="42.326,36.054 41.108,35.393 48.936,34.291 50.152,34.954 		"/>
	</g>
	<g>
		<polygon fill="#5A5B5B" points="34.068,37.214 32.852,36.552 39.437,35.626 40.655,36.288 		"/>
	</g>
	<g>
		<g>
			<polygon fill="#5A5B5B" points="40.655,36.288 39.437,35.626 39.461,22.131 40.678,22.793 			"/>
		</g>
	</g>
	<g>
		<g>
			<polygon fill="#505050" points="27.84,38.09 26.622,37.428 31.18,36.786 32.398,37.449 			"/>
		</g>
	</g>
	<g>
		<g>
			<polygon fill="#5A5B5B" points="25.687,41.17 24.469,40.508 26.622,37.428 27.84,38.09 			"/>
		</g>
	</g>
	<g>
		<g>
			<polygon fill="#5A5B5B" points="32.398,37.449 31.18,36.786 31.203,23.292 32.422,23.955 			"/>
		</g>
	</g>
	<g>
		<g>
			<polygon fill="#7C7D7C" points="51.847,21.224 51.823,34.719 51.819,36.352 51.817,37.497 25.687,41.17 27.84,38.09 
				32.398,37.449 32.422,23.955 34.091,23.719 34.068,37.214 40.655,36.288 40.678,22.793 42.348,22.559 42.326,36.054 
				50.152,34.954 50.177,21.459 			"/>
		</g>
	</g>
</g>
<g>
	<polygon fill="#2C765E" points="56.225,22.678 51.354,20.027 50.159,18.905 55.031,21.556 	"/>
</g>
<g>
	<g>
		<g>
			<polygon fill="#219277" points="57.384,36.195 52.513,33.546 53.543,29.533 58.414,32.183 			"/>
		</g>
	</g>
	<g>
		<g>
			<polygon fill="#228C78" points="58.414,32.183 53.543,29.533 51.354,20.027 56.225,22.678 			"/>
		</g>
	</g>
	<g>
		<g>
			<polygon fill="#228C78" points="13.931,42.738 9.059,40.088 8.269,35.903 13.14,38.554 			"/>
		</g>
	</g>
	<g>
		<g>
			<polygon fill="#38B69B" points="17.057,25.25 12.185,22.6 50.96,17.151 55.832,19.8 			"/>
		</g>
	</g>
	<g>
		<g>
			<polygon fill="#29A78C" points="15.366,27.615 10.495,24.965 12.185,22.6 17.057,25.25 			"/>
		</g>
	</g>
	<g>
		<g>
			<polygon fill="#23937A" points="13.14,38.554 8.269,35.903 10.495,24.965 15.366,27.615 			"/>
		</g>
	</g>
</g>
<g>
	<g>
		<polygon fill="#5FBFAA" points="55.832,19.8 57.594,21.613 60,31.979 58.84,36.498 57.384,36.195 58.414,32.183 56.225,22.678 
			55.031,21.556 17.889,26.776 16.771,28.213 14.696,38.338 15.42,42.166 13.931,42.738 13.14,38.554 15.366,27.615 17.057,25.25 		
			"/>
	</g>
</g>
<g>
	<g>
		<g>
			<polygon fill="#DFDFDF" points="40.649,25.801 40.635,33.349 34.051,34.273 34.065,26.726 			"/>
		</g>
	</g>
</g>
<g>
	<g>
		<g>
			<polygon fill="#1F8770" points="39.843,27.953 39.842,28.273 34.867,28.972 34.868,28.652 			"/>
		</g>
	</g>
</g>
<g>
	<g>
		<g>
			<polygon fill="#727272" points="39.843,28.574 39.842,28.894 34.867,29.593 34.868,29.273 			"/>
		</g>
	</g>
</g>
<g>
	<g>
		<g>
			<polygon fill="#727272" points="39.834,29.294 39.833,29.623 34.858,30.322 34.859,29.994 			"/>
		</g>
	</g>
</g>
<g>
	<g>
		<g>
			<polygon fill="#727272" points="38.218,30.04 38.217,30.369 34.765,30.854 34.766,30.525 			"/>
		</g>
	</g>
</g>
<g>
	<g>
		<g>
			<polygon fill="#DFDFDF" points="50.167,24.445 50.152,32.002 42.335,33.101 42.35,25.544 			"/>
		</g>
	</g>
</g>
<g>
	<g>
		<g>
			<polygon fill="#1F8770" points="49.217,26.628 49.216,26.948 43.313,27.777 43.313,27.458 			"/>
		</g>
	</g>
</g>
<g>
	<g>
		<g>
			<polygon fill="#727272" points="49.217,27.249 49.216,27.569 43.313,28.398 43.313,28.079 			"/>
		</g>
	</g>
</g>
<g>
	<g>
		<g>
			<polygon fill="#727272" points="49.199,27.969 49.199,28.298 43.304,29.127 43.304,28.798 			"/>
		</g>
	</g>
</g>
<g>
	<g>
		<g>
			<polygon fill="#727272" points="47.285,28.735 47.285,29.063 43.192,29.639 43.192,29.311 			"/>
		</g>
	</g>
</g>
</svg>
