<?xml version="1.0" encoding="utf-8"?>
<!-- Generator: Adobe Illustrator 16.0.0, SVG Export Plug-In . SVG Version: 6.00 Build 0)  -->
<!DOCTYPE svg PUBLIC "-//W3C//DTD SVG 1.0//EN" "http://www.w3.org/TR/2001/REC-SVG-20010904/DTD/svg10.dtd">
<svg version="1.0" id="图层_1" xmlns="http://www.w3.org/2000/svg" xmlns:xlink="http://www.w3.org/1999/xlink" x="0px" y="0px"
	 width="130px" height="70px" viewBox="0 0 130 70" enable-background="new 0 0 130 70" xml:space="preserve">
<path fill-rule="evenodd" clip-rule="evenodd" fill="#103566" d="M31.392,0.761h97.287V68.75H31.392V0.761z"/>
<path fill-rule="evenodd" clip-rule="evenodd" fill="#6482A1" d="M118.54,0.761h10.139V68.75H118.54V0.761z"/>
<path fill-rule="evenodd" clip-rule="evenodd" fill="#FFFFFF" d="M44.876,34.756h4.025v32.241h-4.025V34.756z"/>
<path fill-rule="evenodd" clip-rule="evenodd" fill="#FFFFFF" d="M60.539,34.756h3.827v32.241h-3.827V34.756z"/>
<path fill-rule="evenodd" clip-rule="evenodd" fill="#FFFFFF" d="M76.002,34.756h4.033v32.241h-4.033V34.756z"/>
<path fill-rule="evenodd" clip-rule="evenodd" fill="#FFFFFF" d="M91.693,34.756h4.025v32.241h-4.025V34.756z"/>
<path fill-rule="evenodd" clip-rule="evenodd" fill="#FFFFFF" d="M106.908,34.756h3.826v32.241h-3.826V34.756z"/>
<path fill-rule="evenodd" clip-rule="evenodd" fill="#FFFFFF" d="M121.926,34.756h6.604v32.241h-6.604V34.756z"/>
<path fill-rule="evenodd" clip-rule="evenodd" fill="#D21B22" d="M36.938,34.756h4.025v10.846h-4.025V34.756z"/>
<path fill-rule="evenodd" clip-rule="evenodd" fill="#D21B22" d="M52.599,34.756h3.828v10.846h-3.828V34.756z"/>
<path fill-rule="evenodd" clip-rule="evenodd" fill="#D21B22" d="M68.063,34.756h4.033v10.846h-4.033V34.756z"/>
<path fill-rule="evenodd" clip-rule="evenodd" fill="#D21B22" d="M83.754,34.756h4.025v10.846h-4.025V34.756z"/>
<path fill-rule="evenodd" clip-rule="evenodd" fill="#D21B22" d="M98.969,34.756h3.827v10.846h-3.827V34.756z"/>
<path fill-rule="evenodd" clip-rule="evenodd" fill="#D21B22" d="M113.985,34.756h4.033v10.846h-4.033V34.756z"/>
<path fill-rule="evenodd" clip-rule="evenodd" fill="#D21B22" d="M36.938,56.15h4.025v10.847h-4.025V56.15z"/>
<path fill-rule="evenodd" clip-rule="evenodd" fill="#D21B22" d="M53.046,56.15h3.828v10.847h-3.828V56.15z"/>
<path fill-rule="evenodd" clip-rule="evenodd" fill="#D21B22" d="M68.511,56.15h4.032v10.847h-4.032V56.15z"/>
<path fill-rule="evenodd" clip-rule="evenodd" fill="#D21B22" d="M84.2,56.15h4.026v10.847H84.2V56.15z"/>
<path fill-rule="evenodd" clip-rule="evenodd" fill="#D21B22" d="M99.417,56.15h3.826v10.847h-3.826V56.15z"/>
<path fill-rule="evenodd" clip-rule="evenodd" fill="#D21B22" d="M114.434,56.15h4.032v10.847h-4.032V56.15z"/>
<g>
	<g>
		<path fill="#FFFFFF" d="M80.232,1.909h-1.836v16.921h-3.199l4.132,9.354l4.132-9.354h-3.229V1.909z M113.104,24.407l-3.953-4.497
			v3.33l-7.545-4.722V1.909h-1.806v16.944h0.009v0.339l9.342,5.845v3.865L113.104,24.407z M58.884,1.909h-1.778V18.51l-7.558,4.73
			v-3.33l-3.955,4.497l3.955,4.496v-3.865l9.341-5.845v-1.799l-0.005,0.003V1.909z"/>
	</g>
</g>
<path fill-rule="evenodd" clip-rule="evenodd" fill="#ffffff" d="M125.835,36.442h1.096c0.796,0,1.439,1.02,1.439,2.276v27.384
	h-3.976V38.719C124.395,37.462,125.04,36.442,125.835,36.442z"/>
<path fill-rule="evenodd" clip-rule="evenodd" fill="#D21B22" d="M126.121,38.024h0.521c0.379,0,0.686,0.968,0.686,2.154v25.924
	h-1.891V40.179C125.438,38.992,125.744,38.024,126.121,38.024z"/>
<path fill-rule="evenodd" clip-rule="evenodd" fill="#ffffff" d="M0.4,40.279v-1.097c0-0.795,1.02-1.438,2.276-1.438h27.385v3.976
	H2.676C1.42,41.72,0.4,41.074,0.4,40.279z"/>
<path fill-rule="evenodd" clip-rule="evenodd" fill="#D21B22" d="M1.984,39.992v-0.521c0-0.378,0.965-0.685,2.154-0.685h25.923v1.89
	H4.138C2.949,40.676,1.984,40.37,1.984,39.992z"/>
</svg>
