<?xml version="1.0" encoding="utf-8"?>
<!-- Generator: Adobe Illustrator 16.0.0, SVG Export Plug-In . SVG Version: 6.00 Build 0)  -->
<!DOCTYPE svg PUBLIC "-//W3C//DTD SVG 1.0//EN" "http://www.w3.org/TR/2001/REC-SVG-20010904/DTD/svg10.dtd">
<svg version="1.0" id="图层_1" xmlns="http://www.w3.org/2000/svg" xmlns:xlink="http://www.w3.org/1999/xlink" x="0px" y="0px"
	 width="130px" height="70px" viewBox="0 0 130 70" enable-background="new 0 0 130 70" xml:space="preserve">
<path fill-rule="evenodd" clip-rule="evenodd" fill="#103566" d="M32.976,0.762h97.286V68.75H32.976V0.762z"/>
<path fill-rule="evenodd" clip-rule="evenodd" fill="#6482A1" d="M120.123,0.762h10.139V68.75h-10.139V0.762z"/>
<path fill-rule="evenodd" clip-rule="evenodd" fill="#FFFFFF" d="M46.46,2.515h4.025v32.241H46.46V2.515z"/>
<path fill-rule="evenodd" clip-rule="evenodd" fill="#FFFFFF" d="M62.122,2.515h3.827v32.241h-3.827V2.515z"/>
<path fill-rule="evenodd" clip-rule="evenodd" fill="#FFFFFF" d="M77.585,2.515h4.033v32.241h-4.033V2.515z"/>
<path fill-rule="evenodd" clip-rule="evenodd" fill="#FFFFFF" d="M93.276,2.515h4.025v32.241h-4.025V2.515z"/>
<path fill-rule="evenodd" clip-rule="evenodd" fill="#FFFFFF" d="M108.491,2.515h3.826v32.241h-3.826V2.515z"/>
<path fill-rule="evenodd" clip-rule="evenodd" fill="#FFFFFF" d="M123.509,2.515h6.604v32.241h-6.604V2.515z"/>
<path fill-rule="evenodd" clip-rule="evenodd" fill="#BA2223" d="M38.521,23.91h4.025v10.846h-4.025V23.91z"/>
<path fill-rule="evenodd" clip-rule="evenodd" fill="#BA2223" d="M54.183,23.91h3.828v10.846h-3.828V23.91z"/>
<path fill-rule="evenodd" clip-rule="evenodd" fill="#BA2223" d="M69.646,23.91h4.033v10.846h-4.033V23.91z"/>
<path fill-rule="evenodd" clip-rule="evenodd" fill="#BA2223" d="M85.337,23.91h4.025v10.846h-4.025V23.91z"/>
<path fill-rule="evenodd" clip-rule="evenodd" fill="#BA2223" d="M100.552,23.91h3.827v10.846h-3.827V23.91z"/>
<path fill-rule="evenodd" clip-rule="evenodd" fill="#BA2223" d="M115.568,23.91h4.033v10.846h-4.033V23.91z"/>
<path fill-rule="evenodd" clip-rule="evenodd" fill="#BA2223" d="M38.521,2.515h4.025v10.847h-4.025V2.515z"/>
<path fill-rule="evenodd" clip-rule="evenodd" fill="#BA2223" d="M54.629,2.515h3.828v10.847h-3.828V2.515z"/>
<path fill-rule="evenodd" clip-rule="evenodd" fill="#BA2223" d="M70.094,2.515h4.032v10.847h-4.032V2.515z"/>
<path fill-rule="evenodd" clip-rule="evenodd" fill="#BA2223" d="M85.783,2.515h4.026v10.847h-4.026V2.515z"/>
<path fill-rule="evenodd" clip-rule="evenodd" fill="#BA2223" d="M101,2.515h3.826v10.847H101V2.515z"/>
<path fill-rule="evenodd" clip-rule="evenodd" fill="#BA2223" d="M116.017,2.515h4.032v10.847h-4.032V2.515z"/>
<path fill-rule="evenodd" clip-rule="evenodd" fill="#ffffff" d="M125.978,30.793V3.409h3.976v27.384
	c0,1.257-0.644,2.276-1.439,2.276h-1.096C126.623,33.069,125.978,32.05,125.978,30.793z"/>
<path fill-rule="evenodd" clip-rule="evenodd" fill="#BA2223" d="M127.021,29.333V3.409h1.891v25.924
	c0,1.187-0.307,2.154-0.686,2.154h-0.521C127.327,31.487,127.021,30.52,127.021,29.333z"/>
<path fill-rule="evenodd" clip-rule="evenodd" fill="#ffffff" d="M4.26,27.792h27.385v3.976H4.26c-1.257,0-2.276-0.644-2.276-1.438
	v-1.097C1.983,28.438,3.003,27.792,4.26,27.792z"/>
<path fill-rule="evenodd" clip-rule="evenodd" fill="#BA2223" d="M5.722,28.836h25.923v1.89H5.722c-1.189,0-2.154-0.307-2.154-0.685
	V29.52C3.567,29.142,4.532,28.836,5.722,28.836z"/>
<g>
	<g>
		<path fill="#FFFFFF" d="M107.78,56.602V37.609h-2.063v18.992h-3.627l4.645,10.516l4.646-10.516H107.78z M56.062,37.609h-1.969
			v18.992h-3.65l4.645,10.516l4.645-10.516h-3.67V37.609z M82.125,37.609h-2v18.992h-3.656l4.645,10.516l4.646-10.516h-3.634V37.609
			z"/>
	</g>
</g>
</svg>
