<?xml version="1.0" encoding="utf-8"?>
<!-- Generator: Adobe Illustrator 16.0.0, SVG Export Plug-In . SVG Version: 6.00 Build 0)  -->
<!DOCTYPE svg PUBLIC "-//W3C//DTD SVG 1.0//EN" "http://www.w3.org/TR/2001/REC-SVG-20010904/DTD/svg10.dtd">
<svg version="1.0" id="图层_1" xmlns="http://www.w3.org/2000/svg" xmlns:xlink="http://www.w3.org/1999/xlink" x="0px" y="0px"
	 width="70px" height="130px" viewBox="0 0 70 130" enable-background="new 0 0 70 130" xml:space="preserve">
<path fill-rule="evenodd" clip-rule="evenodd" fill="#103566" d="M0.545,97.902V0.616h67.988v97.286H0.545z"/>
<path fill-rule="evenodd" clip-rule="evenodd" fill="#6482A1" d="M0.545,10.755V0.616h67.988v10.139H0.545z"/>
<path fill-rule="evenodd" clip-rule="evenodd" fill="#FFFFFF" d="M2.297,84.418v-4.025h32.242v4.025H2.297z"/>
<path fill-rule="evenodd" clip-rule="evenodd" fill="#FFFFFF" d="M2.297,68.756v-3.827h32.242v3.827H2.297z"/>
<path fill-rule="evenodd" clip-rule="evenodd" fill="#FFFFFF" d="M2.297,53.293V49.26h32.242v4.033H2.297z"/>
<path fill-rule="evenodd" clip-rule="evenodd" fill="#FFFFFF" d="M2.297,37.602v-4.025h32.242v4.025H2.297z"/>
<path fill-rule="evenodd" clip-rule="evenodd" fill="#FFFFFF" d="M2.297,22.387v-3.826h32.242v3.826H2.297z"/>
<path fill-rule="evenodd" clip-rule="evenodd" fill="#FFFFFF" d="M2.298,7.369V0.766h32.241v6.604H2.298z"/>
<path fill-rule="evenodd" clip-rule="evenodd" fill="#C51E23" d="M23.693,92.357v-4.025h10.845v4.025H23.693z"/>
<path fill-rule="evenodd" clip-rule="evenodd" fill="#C51E23" d="M23.693,76.695v-3.828h10.845v3.828H23.693z"/>
<path fill-rule="evenodd" clip-rule="evenodd" fill="#C51E23" d="M23.693,61.231v-4.033h10.845v4.033H23.693z"/>
<path fill-rule="evenodd" clip-rule="evenodd" fill="#C51E23" d="M23.693,45.541v-4.025h10.845v4.025H23.693z"/>
<path fill-rule="evenodd" clip-rule="evenodd" fill="#C51E23" d="M23.693,30.326v-3.827h10.845v3.827H23.693z"/>
<path fill-rule="evenodd" clip-rule="evenodd" fill="#C51E23" d="M23.693,15.31v-4.033h10.845v4.033H23.693z"/>
<path fill-rule="evenodd" clip-rule="evenodd" fill="#C51E23" d="M2.297,92.357v-4.025h10.848v4.025H2.297z"/>
<path fill-rule="evenodd" clip-rule="evenodd" fill="#C51E23" d="M2.297,76.249v-3.828h10.848v3.828H2.297z"/>
<path fill-rule="evenodd" clip-rule="evenodd" fill="#C51E23" d="M2.297,60.784v-4.032h10.848v4.032H2.297z"/>
<path fill-rule="evenodd" clip-rule="evenodd" fill="#C51E23" d="M2.297,45.095v-4.026h10.848v4.026H2.297z"/>
<path fill-rule="evenodd" clip-rule="evenodd" fill="#C51E23" d="M2.297,29.878v-3.826h10.848v3.826H2.297z"/>
<path fill-rule="evenodd" clip-rule="evenodd" fill="#C51E23" d="M2.297,14.861l0.001-4.032h10.847v4.032H2.297z"/>
<path fill-rule="evenodd" clip-rule="evenodd" fill="#ffffff" d="M30.576,4.9H3.192V0.925h27.384c1.257,0,2.276,0.644,2.276,1.439
	V3.46C32.853,4.255,31.833,4.9,30.576,4.9z"/>
<path fill-rule="evenodd" clip-rule="evenodd" fill="#C51E23" d="M29.116,3.857H3.192V1.967h25.924c1.187,0,2.154,0.307,2.154,0.686
	v0.521C31.271,3.551,30.303,3.857,29.116,3.857z"/>
<path fill-rule="evenodd" clip-rule="evenodd" fill="#ffffff" d="M27.574,126.619V99.234h3.977v27.385
	c0,1.256-0.645,2.275-1.439,2.275h-1.096C28.221,128.895,27.574,127.875,27.574,126.619z"/>
<path fill-rule="evenodd" clip-rule="evenodd" fill="#C51E23" d="M28.619,125.156V99.234h1.889v25.922
	c0,1.189-0.307,2.154-0.684,2.154h-0.521C28.924,127.311,28.619,126.346,28.619,125.156z"/>
<g>
	<g>
		<path fill="#FFFFFF" d="M56.29,77.236H37.299v2.063H56.29v3.601l10.517-4.646L56.29,73.609V77.236z M56.29,31.251l10.517-4.645
			L56.29,21.962v3.65H37.299v1.969H56.29V31.251z M56.29,51.644H37.299v2H56.29v3.634l10.517-4.646L56.29,47.987V51.644z"/>
	</g>
</g>
</svg>
