<?xml version="1.0" encoding="utf-8"?>
<!-- Generator: Adobe Illustrator 16.0.0, SVG Export Plug-In . SVG Version: 6.00 Build 0)  -->
<!DOCTYPE svg PUBLIC "-//W3C//DTD SVG 1.0//EN" "http://www.w3.org/TR/2001/REC-SVG-20010904/DTD/svg10.dtd">
<svg version="1.0" id="图层_1" xmlns="http://www.w3.org/2000/svg" xmlns:xlink="http://www.w3.org/1999/xlink" x="0px" y="0px"
	 width="130px" height="70px" viewBox="0 0 130 70" enable-background="new 0 0 130 70" xml:space="preserve">
<path fill-rule="evenodd" clip-rule="evenodd" fill="#103566" d="M97.286,68.75H0V0.761h97.286V68.75z"/>
<path fill-rule="evenodd" clip-rule="evenodd" fill="#6482A1" d="M10.139,68.75H0V0.761h10.139V68.75z"/>
<path fill-rule="evenodd" clip-rule="evenodd" fill="#FFFFFF" d="M83.802,66.997h-4.025V34.756h4.025V66.997z"/>
<path fill-rule="evenodd" clip-rule="evenodd" fill="#FFFFFF" d="M68.14,66.997h-3.827V34.756h3.827V66.997z"/>
<path fill-rule="evenodd" clip-rule="evenodd" fill="#FFFFFF" d="M52.677,66.997h-4.033V34.756h4.033V66.997z"/>
<path fill-rule="evenodd" clip-rule="evenodd" fill="#FFFFFF" d="M36.985,66.997H32.96V34.756h4.025V66.997z"/>
<path fill-rule="evenodd" clip-rule="evenodd" fill="#FFFFFF" d="M21.771,66.997h-3.826V34.756h3.826V66.997z"/>
<path fill-rule="evenodd" clip-rule="evenodd" fill="#FFFFFF" d="M6.753,66.997H0.149V34.756h6.604V66.997z"/>
<path fill-rule="evenodd" clip-rule="evenodd" fill="#D21B22" d="M91.741,45.602h-4.025V34.756h4.025V45.602z"/>
<path fill-rule="evenodd" clip-rule="evenodd" fill="#D21B22" d="M76.079,45.602h-3.828V34.756h3.828V45.602z"/>
<path fill-rule="evenodd" clip-rule="evenodd" fill="#D21B22" d="M60.615,45.602h-4.033V34.756h4.033V45.602z"/>
<path fill-rule="evenodd" clip-rule="evenodd" fill="#D21B22" d="M44.925,45.602h-4.025V34.756h4.025V45.602z"/>
<path fill-rule="evenodd" clip-rule="evenodd" fill="#D21B22" d="M29.71,45.602h-3.827V34.756h3.827V45.602z"/>
<path fill-rule="evenodd" clip-rule="evenodd" fill="#D21B22" d="M14.693,45.602H10.66V34.756h4.033V45.602z"/>
<path fill-rule="evenodd" clip-rule="evenodd" fill="#D21B22" d="M91.741,66.997h-4.025V56.15h4.025V66.997z"/>
<path fill-rule="evenodd" clip-rule="evenodd" fill="#D21B22" d="M75.633,66.997h-3.828V56.15h3.828V66.997z"/>
<path fill-rule="evenodd" clip-rule="evenodd" fill="#D21B22" d="M60.168,66.997h-4.032V56.15h4.032V66.997z"/>
<path fill-rule="evenodd" clip-rule="evenodd" fill="#D21B22" d="M44.479,66.997h-4.026V56.15h4.026V66.997z"/>
<path fill-rule="evenodd" clip-rule="evenodd" fill="#D21B22" d="M29.262,66.997h-3.826V56.15h3.826V66.997z"/>
<path fill-rule="evenodd" clip-rule="evenodd" fill="#D21B22" d="M14.245,66.997h-4.032V56.15h4.032V66.997z"/>
<path fill-rule="evenodd" clip-rule="evenodd" fill="#ffffff" d="M4.284,38.719v27.384H0.309V38.719
	c0-1.257,0.644-2.276,1.439-2.276h1.096C3.639,36.442,4.284,37.462,4.284,38.719z"/>
<path fill-rule="evenodd" clip-rule="evenodd" fill="#D21B22" d="M3.241,40.179v25.924H1.351V40.179
	c0-1.187,0.307-2.154,0.686-2.154h0.521C2.935,38.024,3.241,38.992,3.241,40.179z"/>
<path fill-rule="evenodd" clip-rule="evenodd" fill="#ffffff" d="M126.002,41.72H98.617v-3.976h27.385
	c1.257,0,2.276,0.644,2.276,1.438v1.097C128.278,41.074,127.259,41.72,126.002,41.72z"/>
<path fill-rule="evenodd" clip-rule="evenodd" fill="#D21B22" d="M124.54,40.676H98.617v-1.89h25.923
	c1.189,0,2.154,0.307,2.154,0.685v0.521C126.694,40.37,125.729,40.676,124.54,40.676z"/>
<g>
	<g>
		<path fill="#FFFFFF" d="M79.478,1.676l-4.646,10.517h3.628v18.991h2.063V12.193h3.6L79.478,1.676z M23.185,12.193h3.65v18.991
			h1.969V12.193h3.671L27.829,1.676L23.185,12.193z M53.855,1.676l-4.645,10.517h3.655v18.991h2V12.193h3.635L53.855,1.676z"/>
	</g>
</g>
</svg>
