<?xml version="1.0" encoding="utf-8"?>
<!-- Generator: Adobe Illustrator 16.0.0, SVG Export Plug-In . SVG Version: 6.00 Build 0)  -->
<!DOCTYPE svg PUBLIC "-//W3C//DTD SVG 1.0//EN" "http://www.w3.org/TR/2001/REC-SVG-20010904/DTD/svg10.dtd">
<svg version="1.0" id="图层_1" xmlns="http://www.w3.org/2000/svg" xmlns:xlink="http://www.w3.org/1999/xlink" x="0px" y="0px"
	 width="130px" height="70px" viewBox="0 0 130 70" enable-background="new 0 0 130 70" xml:space="preserve">
<path fill-rule="evenodd" clip-rule="evenodd" fill="#103566" d="M97.686,68.75H0.399V0.762h97.286V68.75z"/>
<path fill-rule="evenodd" clip-rule="evenodd" fill="#6482A1" d="M10.538,68.75H0.399V0.762h10.139V68.75z"/>
<path fill-rule="evenodd" clip-rule="evenodd" fill="#FFFFFF" d="M84.201,34.756h-4.025V2.515h4.025V34.756z"/>
<path fill-rule="evenodd" clip-rule="evenodd" fill="#FFFFFF" d="M68.539,34.756h-3.827V2.515h3.827V34.756z"/>
<path fill-rule="evenodd" clip-rule="evenodd" fill="#FFFFFF" d="M53.076,34.756h-4.033V2.515h4.033V34.756z"/>
<path fill-rule="evenodd" clip-rule="evenodd" fill="#FFFFFF" d="M37.385,34.756h-4.025V2.515h4.025V34.756z"/>
<path fill-rule="evenodd" clip-rule="evenodd" fill="#FFFFFF" d="M22.17,34.756h-3.826V2.515h3.826V34.756z"/>
<path fill-rule="evenodd" clip-rule="evenodd" fill="#FFFFFF" d="M7.152,34.756H0.549V2.515h6.604V34.756z"/>
<path fill-rule="evenodd" clip-rule="evenodd" fill="#68AF34" d="M92.141,34.756h-4.025V23.91h4.025V34.756z"/>
<path fill-rule="evenodd" clip-rule="evenodd" fill="#68AF34" d="M76.479,34.756H72.65V23.91h3.828V34.756z"/>
<path fill-rule="evenodd" clip-rule="evenodd" fill="#68AF34" d="M61.015,34.756h-4.033V23.91h4.033V34.756z"/>
<path fill-rule="evenodd" clip-rule="evenodd" fill="#68AF34" d="M45.324,34.756h-4.025V23.91h4.025V34.756z"/>
<path fill-rule="evenodd" clip-rule="evenodd" fill="#68AF34" d="M30.109,34.756h-3.827V23.91h3.827V34.756z"/>
<path fill-rule="evenodd" clip-rule="evenodd" fill="#68AF34" d="M15.093,34.756H11.06V23.91h4.033V34.756z"/>
<path fill-rule="evenodd" clip-rule="evenodd" fill="#68AF34" d="M92.141,13.361h-4.025V2.515h4.025V13.361z"/>
<path fill-rule="evenodd" clip-rule="evenodd" fill="#68AF34" d="M76.032,13.361h-3.828V2.515h3.828V13.361z"/>
<path fill-rule="evenodd" clip-rule="evenodd" fill="#68AF34" d="M60.567,13.361h-4.032V2.515h4.032V13.361z"/>
<path fill-rule="evenodd" clip-rule="evenodd" fill="#68AF34" d="M44.878,13.361h-4.026V2.515h4.026V13.361z"/>
<path fill-rule="evenodd" clip-rule="evenodd" fill="#68AF34" d="M29.661,13.361h-3.826V2.515h3.826V13.361z"/>
<path fill-rule="evenodd" clip-rule="evenodd" fill="#68AF34" d="M14.645,13.361h-4.032V2.515h4.032V13.361z"/>
<g>
	<g>
		<path fill="#FFFFFF" d="M45.617,50.682h3.229v16.921h1.836V50.682h3.199l-4.132-9.355L45.617,50.682z M29.269,50.318l-9.342-5.845
			v-3.864l-3.953,4.496l3.953,4.496v-3.33l7.545,4.723v16.608h1.806V50.658h-0.009V50.318z M83.484,45.105l-3.955-4.496v3.864
			l-9.341,5.845v1.8l0.005-0.003v15.487h1.778V51.002l7.558-4.729v3.329L83.484,45.105z"/>
	</g>
</g>
<path fill-rule="evenodd" clip-rule="evenodd" fill="#ffffff" d="M3.243,33.069H2.147c-0.796,0-1.439-1.02-1.439-2.276V3.409h3.976
	v27.384C4.684,32.05,4.038,33.069,3.243,33.069z"/>
<path fill-rule="evenodd" clip-rule="evenodd" fill="#68AF34" d="M2.957,31.487H2.436c-0.379,0-0.686-0.968-0.686-2.154V3.409h1.891
	v25.924C3.641,30.52,3.334,31.487,2.957,31.487z"/>
<path fill-rule="evenodd" clip-rule="evenodd" fill="#ffffff" d="M128.678,29.232v1.097c0,0.795-1.02,1.438-2.276,1.438H99.017
	v-3.976h27.385C127.658,27.792,128.678,28.438,128.678,29.232z"/>
<path fill-rule="evenodd" clip-rule="evenodd" fill="#68AF34" d="M127.094,29.52v0.521c0,0.378-0.965,0.685-2.154,0.685H99.017
	v-1.89h25.923C126.129,28.836,127.094,29.142,127.094,29.52z"/>
</svg>
