<?xml version="1.0" encoding="utf-8"?>
<!-- Generator: Adobe Illustrator 16.0.0, SVG Export Plug-In . SVG Version: 6.00 Build 0)  -->
<!DOCTYPE svg PUBLIC "-//W3C//DTD SVG 1.0//EN" "http://www.w3.org/TR/2001/REC-SVG-20010904/DTD/svg10.dtd">
<svg version="1.0" id="图层_1" xmlns="http://www.w3.org/2000/svg" xmlns:xlink="http://www.w3.org/1999/xlink" x="0px" y="0px"
	 width="70px" height="130px" viewBox="0 0 70 130" enable-background="new 0 0 70 130" xml:space="preserve">
<path fill-rule="evenodd" clip-rule="evenodd" fill="#103566" d="M68.533,31.608v97.286H0.545V31.608H68.533z"/>
<path fill-rule="evenodd" clip-rule="evenodd" fill="#6482A1" d="M68.533,118.756v10.139H0.545v-10.139H68.533z"/>
<path fill-rule="evenodd" clip-rule="evenodd" fill="#FFFFFF" d="M34.539,45.093v4.025H2.297v-4.025H34.539z"/>
<path fill-rule="evenodd" clip-rule="evenodd" fill="#FFFFFF" d="M34.539,60.755v3.827H2.297v-3.827H34.539z"/>
<path fill-rule="evenodd" clip-rule="evenodd" fill="#FFFFFF" d="M34.539,76.218v4.033H2.297v-4.033H34.539z"/>
<path fill-rule="evenodd" clip-rule="evenodd" fill="#FFFFFF" d="M34.539,91.909v4.025H2.297v-4.025H34.539z"/>
<path fill-rule="evenodd" clip-rule="evenodd" fill="#FFFFFF" d="M34.539,107.124v3.826H2.297v-3.826H34.539z"/>
<path fill-rule="evenodd" clip-rule="evenodd" fill="#FFFFFF" d="M34.539,122.142v6.604H2.298v-6.604H34.539z"/>
<path fill-rule="evenodd" clip-rule="evenodd" fill="#68AF34" d="M34.539,36.831v4.025H23.693v-4.025H34.539z"/>
<path fill-rule="evenodd" clip-rule="evenodd" fill="#68AF34" d="M34.539,52.493v3.828H23.693v-3.828H34.539z"/>
<path fill-rule="evenodd" clip-rule="evenodd" fill="#68AF34" d="M34.539,67.957v4.033H23.693v-4.033H34.539z"/>
<path fill-rule="evenodd" clip-rule="evenodd" fill="#68AF34" d="M34.539,83.647v4.025H23.693v-4.025H34.539z"/>
<path fill-rule="evenodd" clip-rule="evenodd" fill="#68AF34" d="M34.539,98.862v3.827H23.693v-3.827H34.539z"/>
<path fill-rule="evenodd" clip-rule="evenodd" fill="#68AF34" d="M34.539,114.201v4.033H23.693v-4.033H34.539z"/>
<path fill-rule="evenodd" clip-rule="evenodd" fill="#68AF34" d="M13.145,36.831v4.025H2.297v-4.025H13.145z"/>
<path fill-rule="evenodd" clip-rule="evenodd" fill="#68AF34" d="M13.145,52.939v3.828H2.297v-3.828H13.145z"/>
<path fill-rule="evenodd" clip-rule="evenodd" fill="#68AF34" d="M13.145,68.404v4.032H2.297v-4.032H13.145z"/>
<path fill-rule="evenodd" clip-rule="evenodd" fill="#68AF34" d="M13.145,84.094v4.026H2.297v-4.026H13.145z"/>
<path fill-rule="evenodd" clip-rule="evenodd" fill="#68AF34" d="M13.145,99.311v3.826H2.297v-3.826H13.145z"/>
<path fill-rule="evenodd" clip-rule="evenodd" fill="#68AF34" d="M13.145,114.327v4.032H2.298l-0.001-4.032H13.145z"/>
<path fill-rule="evenodd" clip-rule="evenodd" fill="#ffffff" d="M32.853,126.051v1.096c0,0.796-1.02,1.439-2.276,1.439H3.192
	v-3.976h27.384C31.833,124.61,32.853,125.256,32.853,126.051z"/>
<path fill-rule="evenodd" clip-rule="evenodd" fill="#68AF34" d="M31.271,126.337v0.521c0,0.379-0.968,0.686-2.154,0.686H3.192
	v-1.891h25.924C30.303,125.653,31.271,125.96,31.271,126.337z"/>
<path fill-rule="evenodd" clip-rule="evenodd" fill="#ffffff" d="M29.016,0.616h1.096c0.795,0,1.439,1.02,1.439,2.275v27.385h-3.977
	V2.892C27.574,1.636,28.221,0.616,29.016,0.616z"/>
<path fill-rule="evenodd" clip-rule="evenodd" fill="#68AF34" d="M29.303,1.878h0.521c0.377,0,0.684,0.965,0.684,2.154v25.922
	h-1.889V4.032C28.619,2.843,28.924,1.878,29.303,1.878z"/>
<g>
	<g>
		<path fill="#FFFFFF" d="M48.924,70.294l-9.355,4.132l9.355,4.132v-3.199h16.922v-1.836H48.924V70.294z M49.236,52.148
			l-4.722-7.545h3.33l-4.496-3.953l-4.496,3.953h3.864l5.845,9.342h0.34v0.009h16.944v-1.806H49.236z M50.361,94.865h-1.801
			l-5.844,9.341h-3.865l4.496,3.956l4.496-3.955h-3.33l4.731-7.559h16.601v-1.777H50.357L50.361,94.865z"/>
	</g>
</g>
</svg>
