<?xml version="1.0" encoding="utf-8"?>
<!-- Generator: Adobe Illustrator 16.0.0, SVG Export Plug-In . SVG Version: 6.00 Build 0)  -->
<!DOCTYPE svg PUBLIC "-//W3C//DTD SVG 1.0//EN" "http://www.w3.org/TR/2001/REC-SVG-20010904/DTD/svg10.dtd">
<svg version="1.0" id="图层_1" xmlns="http://www.w3.org/2000/svg" xmlns:xlink="http://www.w3.org/1999/xlink" x="0px" y="0px"
	 width="70px" height="130px" viewBox="0 0 70 130" enable-background="new 0 0 70 130" xml:space="preserve">
<path fill-rule="evenodd" clip-rule="evenodd" fill="#103566" d="M68.533,31.608v97.286H0.545V31.608H68.533z"/>
<path fill-rule="evenodd" clip-rule="evenodd" fill="#6482A1" d="M68.533,118.756v10.139H0.545v-10.139H68.533z"/>
<path fill-rule="evenodd" clip-rule="evenodd" fill="#FFFFFF" d="M66.781,45.093v4.025H34.54v-4.025H66.781z"/>
<path fill-rule="evenodd" clip-rule="evenodd" fill="#FFFFFF" d="M66.781,60.755v3.827H34.54v-3.827H66.781z"/>
<path fill-rule="evenodd" clip-rule="evenodd" fill="#FFFFFF" d="M66.781,76.218v4.033H34.54v-4.033H66.781z"/>
<path fill-rule="evenodd" clip-rule="evenodd" fill="#FFFFFF" d="M66.781,91.909v4.025H34.54v-4.025H66.781z"/>
<path fill-rule="evenodd" clip-rule="evenodd" fill="#FFFFFF" d="M66.781,107.124v3.826H34.54v-3.826H66.781z"/>
<path fill-rule="evenodd" clip-rule="evenodd" fill="#FFFFFF" d="M66.78,122.142v6.604H34.54v-6.604H66.78z"/>
<path fill-rule="evenodd" clip-rule="evenodd" fill="#68AF34" d="M45.385,37.153v4.025H34.54v-4.025H45.385z"/>
<path fill-rule="evenodd" clip-rule="evenodd" fill="#68AF34" d="M45.385,52.815v3.828H34.54v-3.828H45.385z"/>
<path fill-rule="evenodd" clip-rule="evenodd" fill="#68AF34" d="M45.385,68.279v4.033H34.54v-4.033H45.385z"/>
<path fill-rule="evenodd" clip-rule="evenodd" fill="#68AF34" d="M45.385,83.97v4.025H34.54V83.97H45.385z"/>
<path fill-rule="evenodd" clip-rule="evenodd" fill="#68AF34" d="M45.385,99.185v3.827H34.54v-3.827H45.385z"/>
<path fill-rule="evenodd" clip-rule="evenodd" fill="#68AF34" d="M45.385,114.201v4.033H34.54v-4.033H45.385z"/>
<path fill-rule="evenodd" clip-rule="evenodd" fill="#68AF34" d="M66.781,37.153v4.025H55.934v-4.025H66.781z"/>
<path fill-rule="evenodd" clip-rule="evenodd" fill="#68AF34" d="M66.781,53.262v3.828H55.934v-3.828H66.781z"/>
<path fill-rule="evenodd" clip-rule="evenodd" fill="#68AF34" d="M66.781,68.727v4.032H55.934v-4.032H66.781z"/>
<path fill-rule="evenodd" clip-rule="evenodd" fill="#68AF34" d="M66.781,84.416v4.026H55.934v-4.026H66.781z"/>
<path fill-rule="evenodd" clip-rule="evenodd" fill="#68AF34" d="M66.781,99.633v3.826H55.934v-3.826H66.781z"/>
<path fill-rule="evenodd" clip-rule="evenodd" fill="#68AF34" d="M66.781,114.649l-0.001,4.032H55.934v-4.032H66.781z"/>
<path fill-rule="evenodd" clip-rule="evenodd" fill="#ffffff" d="M38.502,124.61h27.384v3.976H38.502
	c-1.257,0-2.276-0.644-2.276-1.439v-1.096C36.226,125.256,37.245,124.61,38.502,124.61z"/>
<path fill-rule="evenodd" clip-rule="evenodd" fill="#68AF34" d="M39.962,125.653h25.924v1.891H39.962
	c-1.187,0-2.154-0.307-2.154-0.686v-0.521C37.808,125.96,38.775,125.653,39.962,125.653z"/>
<path fill-rule="evenodd" clip-rule="evenodd" fill="#ffffff" d="M41.504,2.892v27.385h-3.977V2.892
	c0-1.256,0.645-2.275,1.439-2.275h1.096C40.857,0.616,41.504,1.636,41.504,2.892z"/>
<path fill-rule="evenodd" clip-rule="evenodd" fill="#68AF34" d="M40.459,4.354v25.922H38.57V4.354c0-1.189,0.307-2.154,0.684-2.154
	h0.521C40.154,2.2,40.459,3.165,40.459,4.354z"/>
<g>
	<g>
		<path fill="#FFFFFF" d="M12.788,50.212v-3.601L2.271,51.257l10.517,4.645v-3.627h18.991v-2.063H12.788z M12.788,98.26
			l-10.517,4.645l10.517,4.645v-3.65h18.991v-1.969H12.788V98.26z M12.788,72.233L2.271,76.879l10.517,4.645v-3.656h18.991v-2
			H12.788V72.233z"/>
	</g>
</g>
</svg>
