<?xml version="1.0" encoding="utf-8"?>
<!-- Generator: Adobe Illustrator 16.0.0, SVG Export Plug-In . SVG Version: 6.00 Build 0)  -->
<!DOCTYPE svg PUBLIC "-//W3C//DTD SVG 1.0//EN" "http://www.w3.org/TR/2001/REC-SVG-20010904/DTD/svg10.dtd">
<svg version="1.0" id="图层_1" xmlns="http://www.w3.org/2000/svg" xmlns:xlink="http://www.w3.org/1999/xlink" x="0px" y="0px"
	 width="70px" height="130px" viewBox="0 0 70 130" enable-background="new 0 0 70 130" xml:space="preserve">
<path fill-rule="evenodd" clip-rule="evenodd" fill="#103566" d="M0.545,97.902V0.616h67.988v97.286H0.545z"/>
<path fill-rule="evenodd" clip-rule="evenodd" fill="#6482A1" d="M0.545,10.755V0.616h67.988v10.139H0.545z"/>
<path fill-rule="evenodd" clip-rule="evenodd" fill="#FFFFFF" d="M34.54,84.418v-4.025h32.242v4.025H34.54z"/>
<path fill-rule="evenodd" clip-rule="evenodd" fill="#FFFFFF" d="M34.54,68.756v-3.827h32.242v3.827H34.54z"/>
<path fill-rule="evenodd" clip-rule="evenodd" fill="#FFFFFF" d="M34.54,53.293V49.26h32.242v4.033H34.54z"/>
<path fill-rule="evenodd" clip-rule="evenodd" fill="#FFFFFF" d="M34.54,37.602v-4.025h32.242v4.025H34.54z"/>
<path fill-rule="evenodd" clip-rule="evenodd" fill="#FFFFFF" d="M34.54,22.387v-3.826h32.242v3.826H34.54z"/>
<path fill-rule="evenodd" clip-rule="evenodd" fill="#FFFFFF" d="M34.54,7.369V0.766H66.78v6.604H34.54z"/>
<path fill-rule="evenodd" clip-rule="evenodd" fill="#68AF34" d="M34.54,92.357v-4.025h10.845v4.025H34.54z"/>
<path fill-rule="evenodd" clip-rule="evenodd" fill="#68AF34" d="M34.54,76.695v-3.828h10.845v3.828H34.54z"/>
<path fill-rule="evenodd" clip-rule="evenodd" fill="#68AF34" d="M34.54,61.231v-4.033h10.845v4.033H34.54z"/>
<path fill-rule="evenodd" clip-rule="evenodd" fill="#68AF34" d="M34.54,45.541v-4.025h10.845v4.025H34.54z"/>
<path fill-rule="evenodd" clip-rule="evenodd" fill="#68AF34" d="M34.54,30.326v-3.827h10.845v3.827H34.54z"/>
<path fill-rule="evenodd" clip-rule="evenodd" fill="#68AF34" d="M34.54,15.31v-4.033h10.845v4.033H34.54z"/>
<path fill-rule="evenodd" clip-rule="evenodd" fill="#68AF34" d="M55.934,92.357v-4.025h10.848v4.025H55.934z"/>
<path fill-rule="evenodd" clip-rule="evenodd" fill="#68AF34" d="M55.934,76.249v-3.828h10.848v3.828H55.934z"/>
<path fill-rule="evenodd" clip-rule="evenodd" fill="#68AF34" d="M55.934,60.784v-4.032h10.848v4.032H55.934z"/>
<path fill-rule="evenodd" clip-rule="evenodd" fill="#68AF34" d="M55.934,45.095v-4.026h10.848v4.026H55.934z"/>
<path fill-rule="evenodd" clip-rule="evenodd" fill="#68AF34" d="M55.934,29.878v-3.826h10.848v3.826H55.934z"/>
<path fill-rule="evenodd" clip-rule="evenodd" fill="#68AF34" d="M55.934,14.861v-4.032H66.78l0.001,4.032H55.934z"/>
<g>
	<g>
		<path fill="#FFFFFF" d="M18.614,54.098l9.354-4.132l-9.354-4.132v3.229H1.693v1.836h16.921V54.098z M18.637,29.485h0.339
			l5.845-9.342h3.865L24.19,16.19l-4.497,3.953h3.33l-4.722,7.545H1.693v1.806h16.944V29.485z M18.977,70.406h-1.799l0.002,0.004
			H1.693v1.779h16.601l4.729,7.557h-3.329l4.497,3.955l4.496-3.955h-3.866L18.977,70.406z"/>
	</g>
</g>
<path fill-rule="evenodd" clip-rule="evenodd" fill="#ffffff" d="M36.226,3.46V2.364c0-0.796,1.02-1.439,2.276-1.439h27.384V4.9
	H38.502C37.245,4.9,36.226,4.255,36.226,3.46z"/>
<path fill-rule="evenodd" clip-rule="evenodd" fill="#68AF34" d="M37.808,3.174V2.652c0-0.379,0.968-0.686,2.154-0.686h25.924v1.891
	H39.962C38.775,3.857,37.808,3.551,37.808,3.174z"/>
<path fill-rule="evenodd" clip-rule="evenodd" fill="#ffffff" d="M40.063,128.895h-1.096c-0.795,0-1.439-1.02-1.439-2.275V99.234
	h3.977v27.385C41.504,127.875,40.857,128.895,40.063,128.895z"/>
<path fill-rule="evenodd" clip-rule="evenodd" fill="#68AF34" d="M39.775,127.311h-0.521c-0.377,0-0.684-0.965-0.684-2.154V99.234
	h1.889v25.922C40.459,126.346,40.154,127.311,39.775,127.311z"/>
</svg>
