<svg 
 xmlns="http://www.w3.org/2000/svg"
 xmlns:xlink="http://www.w3.org/1999/xlink"
 width="10.6cm" height="3.6cm">
<path fill-rule="evenodd"  fill="rgb(1, 54, 109)"
 d="M-0.000,0.063 L406.000,0.063 L406.000,140.000 L-0.000,140.000 L-0.000,0.063 Z"/>
<path fill-rule="evenodd"  opacity="0.4" fill="rgb(255, 255, 255)"
 d="M180.500,-0.000 L220.472,-0.000 L220.472,72.049 L180.500,72.049 L180.500,-0.000 Z"/>
<path fill-rule="evenodd"  fill="rgb(255, 255, 255)"
 d="M56.891,56.280 L56.891,65.013 L48.015,54.852 L56.891,44.691 L56.891,52.214 L73.856,41.525 L73.856,4.000 L77.853,4.000 L77.853,39.006 L77.856,39.005 L77.856,43.070 L56.891,56.280 Z"/>
<path fill-rule="evenodd"  fill="rgb(255, 255, 255)"
 d="M133.001,42.251 L123.728,63.392 L114.455,42.251 L121.633,42.251 L121.633,4.000 L125.755,4.000 L125.755,42.251 L133.001,42.251 Z"/>
<path fill-rule="evenodd"  fill="rgb(255, 255, 255)"
 d="M328.991,25.393 L328.991,63.352 L324.994,63.352 L324.994,25.393 L317.698,25.393 L326.977,4.360 L336.257,25.393 L328.991,25.393 Z"/>
<path fill-rule="evenodd"  fill="rgb(255, 255, 255)"
 d="M380.955,25.393 L380.955,63.352 L377.020,63.352 L377.020,25.393 L369.692,25.393 L378.971,4.360 L388.251,25.393 L380.955,25.393 Z"/>
<path fill-rule="evenodd"  fill="rgb(255, 255, 255)"
 d="M277.839,25.393 L277.839,63.352 L273.748,63.352 L273.748,25.393 L266.511,25.393 L275.790,4.360 L285.070,25.393 L277.839,25.393 Z"/>
<path fill-rule="evenodd"  fill="#01D90C"
 d="M390.261,138.123 L390.261,115.911 L398.255,115.911 L398.255,138.123 L390.261,138.123 ZM390.261,72.049 L398.255,72.049 L398.255,94.261 L390.261,94.261 L390.261,72.049 ZM358.283,115.911 L366.278,115.911 L366.278,138.123 L358.283,138.123 L358.283,115.911 ZM358.283,72.049 L366.278,72.049 L366.278,94.261 L358.283,94.261 L358.283,72.049 ZM326.368,115.911 L334.362,115.911 L334.362,138.123 L326.368,138.123 L326.368,115.911 ZM326.368,72.049 L334.362,72.049 L334.362,94.261 L326.368,94.261 L326.368,72.049 ZM294.390,115.911 L302.384,115.911 L302.384,138.123 L294.390,138.123 L294.390,115.911 ZM294.390,72.049 L302.384,72.049 L302.384,94.261 L294.390,94.261 L294.390,72.049 ZM260.445,115.911 L268.439,115.911 L268.439,138.123 L260.445,138.123 L260.445,115.911 ZM260.445,72.049 L268.439,72.049 L268.439,94.261 L260.445,94.261 L260.445,72.049 ZM228.467,115.911 L236.461,115.911 L236.461,138.123 L228.467,138.123 L228.467,115.911 ZM228.467,72.049 L236.461,72.049 L236.461,94.261 L228.467,94.261 L228.467,72.049 ZM196.489,115.911 L204.483,115.911 L204.483,138.123 L196.489,138.123 L196.489,115.911 ZM196.489,72.049 L204.483,72.049 L204.483,94.261 L196.489,94.261 L196.489,72.049 ZM166.510,115.911 L174.504,115.911 L174.504,138.123 L166.510,138.123 L166.510,115.911 ZM166.510,72.049 L174.504,72.049 L174.504,94.261 L166.510,94.261 L166.510,72.049 ZM134.532,115.911 L142.495,115.911 L142.495,138.123 L134.532,138.123 L134.532,115.911 ZM134.532,72.049 L142.495,72.049 L142.495,94.261 L134.532,94.261 L134.532,72.049 ZM102.585,115.911 L110.580,115.911 L110.580,138.123 L102.585,138.123 L102.585,115.911 ZM102.585,72.049 L110.580,72.049 L110.580,94.261 L102.585,94.261 L102.585,72.049 ZM70.607,115.911 L78.602,115.911 L78.602,138.123 L70.607,138.123 L70.607,115.911 ZM70.607,72.049 L78.602,72.049 L78.602,94.261 L70.607,94.261 L70.607,72.049 ZM38.661,115.911 L46.655,115.911 L46.655,138.123 L38.661,138.123 L38.661,115.911 ZM38.661,72.049 L46.655,72.049 L46.655,94.261 L38.661,94.261 L38.661,72.049 ZM6.683,115.911 L14.677,115.911 L14.677,138.123 L6.683,138.123 L6.683,115.911 ZM6.683,72.049 L14.677,72.049 L14.677,94.261 L6.683,94.261 L6.683,72.049 Z"/>
<path fill-rule="evenodd"  fill="#ffffff"
 d="M374.272,138.123 L374.272,72.049 L382.266,72.049 L382.266,138.123 L374.272,138.123 ZM342.357,72.049 L350.289,72.049 L350.289,138.123 L342.357,138.123 L342.357,72.049 ZM310.379,72.049 L318.373,72.049 L318.373,138.123 L310.379,138.123 L310.379,72.049 ZM278.401,72.049 L286.395,72.049 L286.395,138.123 L278.401,138.123 L278.401,72.049 ZM244.456,72.049 L252.450,72.049 L252.450,138.123 L244.456,138.123 L244.456,72.049 ZM212.478,72.049 L220.472,72.049 L220.472,138.123 L212.478,138.123 L212.478,72.049 ZM180.500,72.049 L188.494,72.049 L188.494,138.123 L180.500,138.123 L180.500,72.049 ZM150.521,72.049 L158.515,72.049 L158.515,138.123 L150.521,138.123 L150.521,72.049 ZM118.574,72.049 L126.569,72.049 L126.569,138.123 L118.574,138.123 L118.574,72.049 ZM86.596,72.049 L94.591,72.049 L94.591,138.123 L86.596,138.123 L86.596,72.049 ZM54.650,72.049 L62.613,72.049 L62.613,138.123 L54.650,138.123 L54.650,72.049 ZM22.641,72.049 L30.666,72.049 L30.666,138.123 L22.641,138.123 L22.641,72.049 Z"/>
</svg>