<svg 
 xmlns="http://www.w3.org/2000/svg"
 xmlns:xlink="http://www.w3.org/1999/xlink"
 width="10.6cm" height="3.6cm">
<path fill-rule="evenodd"  fill="rgb(1, 54, 109)"
 d="M0.199,0.062 L406.459,0.062 L406.459,139.844 L0.199,139.844 L0.199,0.062 Z"/>
<path fill-rule="evenodd"  opacity="0.4" fill="rgb(255, 255, 255)"
 d="M180.807,-0.000 L220.821,-0.000 L220.821,71.969 L180.807,71.969 L180.807,-0.000 Z"/>
<path fill-rule="evenodd"  fill="rgb(255, 255, 255)"
 d="M23.757,56.262 L23.757,64.940 L14.869,54.843 L23.757,44.745 L23.757,52.222 L40.744,41.601 L40.744,4.312 L44.742,4.312 L44.742,39.100 L44.752,39.094 L44.752,43.134 L23.757,56.262 Z"/>
<path fill-rule="evenodd"  fill="rgb(255, 255, 255)"
 d="M166.606,54.843 L157.718,64.940 L157.718,56.262 L136.723,43.134 L136.723,42.375 L136.702,42.375 L136.702,4.312 L140.762,4.312 L140.762,41.620 L157.718,52.222 L157.718,44.745 L166.606,54.843 Z"/>
<path fill-rule="evenodd"  fill="rgb(255, 255, 255)"
 d="M99.976,42.320 L90.690,63.330 L81.404,42.320 L88.598,42.320 L88.598,4.312 L92.721,4.312 L92.721,42.320 L99.976,42.320 Z"/>
<path fill-rule="evenodd"  fill="rgb(255, 255, 255)"
 d="M329.399,25.364 L329.399,63.281 L325.400,63.281 L325.400,25.364 L318.105,25.364 L327.391,4.355 L336.677,25.364 L329.399,25.364 Z"/>
<path fill-rule="evenodd"  fill="rgb(255, 255, 255)"
 d="M381.407,25.364 L381.407,63.281 L377.471,63.281 L377.471,25.364 L370.135,25.364 L379.421,4.355 L388.707,25.364 L381.407,25.364 Z"/>
<path fill-rule="evenodd"  fill="rgb(255, 255, 255)"
 d="M278.233,25.364 L278.233,63.281 L274.110,63.281 L274.110,25.364 L266.883,25.364 L276.169,4.355 L285.455,25.364 L278.233,25.364 Z"/>
<path fill-rule="evenodd"  fill="rgb(224, 16, 32)"
 d="M390.715,137.969 L390.715,115.781 L398.712,115.781 L398.712,137.969 L390.715,137.969 ZM390.715,71.969 L398.712,71.969 L398.712,94.156 L390.715,94.156 L390.715,71.969 ZM358.729,115.781 L366.726,115.781 L366.726,137.969 L358.729,137.969 L358.729,115.781 ZM358.729,71.969 L366.726,71.969 L366.726,94.156 L358.729,94.156 L358.729,71.969 ZM326.775,115.781 L334.771,115.781 L334.771,137.969 L326.775,137.969 L326.775,115.781 ZM326.775,71.969 L334.771,71.969 L334.771,94.156 L326.775,94.156 L326.775,71.969 ZM294.789,115.781 L302.785,115.781 L302.785,137.969 L294.789,137.969 L294.789,115.781 ZM294.789,71.969 L302.785,71.969 L302.785,94.156 L294.789,94.156 L294.789,71.969 ZM260.804,115.781 L268.800,115.781 L268.800,137.969 L260.804,137.969 L260.804,115.781 ZM260.804,71.969 L268.800,71.969 L268.800,94.156 L260.804,94.156 L260.804,71.969 ZM228.818,115.781 L236.814,115.781 L236.814,137.969 L228.818,137.969 L228.818,115.781 ZM228.818,71.969 L236.814,71.969 L236.814,94.156 L228.818,94.156 L228.818,71.969 ZM196.800,115.781 L204.828,115.781 L204.828,137.969 L196.800,137.969 L196.800,115.781 ZM196.800,71.969 L204.828,71.969 L204.828,94.156 L196.800,94.156 L196.800,71.969 ZM166.814,115.781 L174.810,115.781 L174.810,137.969 L166.814,137.969 L166.814,115.781 ZM166.814,71.969 L174.810,71.969 L174.810,94.156 L166.814,94.156 L166.814,71.969 ZM134.828,115.781 L142.793,115.781 L142.793,137.969 L134.828,137.969 L134.828,115.781 ZM134.828,71.969 L142.793,71.969 L142.793,94.156 L134.828,94.156 L134.828,71.969 ZM102.842,115.781 L110.838,115.781 L110.838,137.969 L102.842,137.969 L102.842,115.781 ZM102.842,71.969 L110.838,71.969 L110.838,94.156 L102.842,94.156 L102.842,71.969 ZM70.856,115.781 L78.852,115.781 L78.852,137.969 L70.856,137.969 L70.856,115.781 ZM70.856,71.969 L78.852,71.969 L78.852,94.156 L70.856,94.156 L70.856,71.969 ZM38.870,115.781 L46.866,115.781 L46.866,137.969 L38.870,137.969 L38.870,115.781 ZM38.870,71.969 L46.866,71.969 L46.866,94.156 L38.870,94.156 L38.870,71.969 ZM6.883,115.781 L14.880,115.781 L14.880,137.969 L6.883,137.969 L6.883,115.781 ZM6.883,71.969 L14.880,71.969 L14.880,94.156 L6.883,94.156 L6.883,71.969 Z"/>
<path fill-rule="evenodd"  fill="rgb(255, 255, 255)"
 d="M374.722,137.969 L374.722,71.969 L382.719,71.969 L382.719,137.969 L374.722,137.969 ZM342.768,71.969 L350.733,71.969 L350.733,137.969 L342.768,137.969 L342.768,71.969 ZM310.782,71.969 L318.778,71.969 L318.778,137.969 L310.782,137.969 L310.782,71.969 ZM278.796,71.969 L286.792,71.969 L286.792,137.969 L278.796,137.969 L278.796,71.969 ZM244.811,71.969 L252.807,71.969 L252.807,137.969 L244.811,137.969 L244.811,71.969 ZM212.825,71.969 L220.821,71.969 L220.821,137.969 L212.825,137.969 L212.825,71.969 ZM180.807,71.969 L188.804,71.969 L188.804,137.969 L180.807,137.969 L180.807,71.969 ZM150.820,71.969 L158.817,71.969 L158.817,137.969 L150.820,137.969 L150.820,71.969 ZM118.834,71.969 L126.831,71.969 L126.831,137.969 L118.834,137.969 L118.834,71.969 ZM86.848,71.969 L94.845,71.969 L94.845,137.969 L86.848,137.969 L86.848,71.969 ZM54.862,71.969 L62.859,71.969 L62.859,137.969 L54.862,137.969 L54.862,71.969 ZM22.845,71.969 L30.873,71.969 L30.873,137.969 L22.845,137.969 L22.845,71.969 Z"/>
</svg>